<svg xmlns="http://www.w3.org/2000/svg" data-name="Layer 1" viewBox="0 0 128 128" x="0px" y="0px"><title>Miscellaneous 79 solid</title><path d="M103,32A14,14,0,1,0,89,18,14,14,0,0,0,103,32Z"></path><path d="M25,32A14,14,0,1,0,11,18,14,14,0,0,0,25,32Z"></path><path d="M64,28A14,14,0,1,0,50,14,14,14,0,0,0,64,28Z"></path><path d="M75.28888,28H77a8,8,0,0,1,8,8V54.01929a35.28979,35.28979,0,0,1,4,3.51941V36A12.00822,12.00822,0,0,0,78.84674,24.15717,18.13815,18.13815,0,0,1,75.28888,28Z"></path><path d="M39,57.5387a35.28979,35.28979,0,0,1,4-3.51941V36a8,8,0,0,1,8-8h1.71112a18.13815,18.13815,0,0,1-3.55786-3.84283A12.00822,12.00822,0,0,0,39,36Z"></path><path d="M50,114.06873V126a2.0001,2.0001,0,0,0,2,2H76a2.0001,2.0001,0,0,0,2-2V114.06873a34.72778,34.72778,0,0,1-4,1.4679V124H66v-7.061c-.66235.03754-1.32837.061-2,.061s-1.33765-.0235-2-.061V124H54v-8.46338A34.71638,34.71638,0,0,1,50,114.06873Z"></path><path d="M4,98h7v28a2.0001,2.0001,0,0,0,2,2H37a2.0001,2.0001,0,0,0,2-2V106.4613a35.26075,35.26075,0,0,1-4-4.886V124H27V104a2,2,0,0,0-4,0v20H15V74a2,2,0,0,0-4,0V94H4V40a8,8,0,0,1,8-8h1.71112a18.13815,18.13815,0,0,1-3.55786-3.84283A12.00822,12.00822,0,0,0,0,40V94A4,4,0,0,0,4,98Z"></path><path d="M64,51A31,31,0,1,0,95,82,31,31,0,0,0,64,51ZM84.36572,71.46094l-25.67578,24a1.99949,1.99949,0,0,1-2.78857-.05566l-12.32422-12.48a1.99982,1.99982,0,0,1,2.8457-2.81055L57.37988,91.21l24.25439-22.6709a1.99988,1.99988,0,1,1,2.73145,2.92188Z"></path><path d="M114.28888,32H116a8,8,0,0,1,8,8V94h-7V74a2,2,0,0,0-4,0v50h-8V104a2,2,0,0,0-4,0v20H93V101.57532a35.26075,35.26075,0,0,1-4,4.886V126a2.0001,2.0001,0,0,0,2,2h24a2.0001,2.0001,0,0,0,2-2V98h7a4,4,0,0,0,4-4V40a12.00822,12.00822,0,0,0-10.15326-11.84283A18.13815,18.13815,0,0,1,114.28888,32Z"></path></svg>