<?xml version="1.0" encoding="UTF-8"?>
<svg width="1200pt" height="1200pt" version="1.1" viewBox="0 0 1200 1200" xmlns="http://www.w3.org/2000/svg">
 <g fill="#ec1a2f">
  <path d="m540 285.4c-6.082-3.5078-12.98-5.3555-20-5.3555s-13.918 1.8477-20 5.3555l-270.64 154.6h-149.36c-10.609 0-20.781 4.2148-28.285 11.715-7.5 7.5039-11.715 17.676-11.715 28.285v240c0 10.609 4.2148 20.781 11.715 28.285 7.5039 7.5 17.676 11.715 28.285 11.715h149.36l270.8 154.72c12.379 7.0703 27.582 7.0195 39.914-0.13281 12.332-7.1562 19.922-20.332 19.926-34.586v-560c-0.015625-14.277-7.6367-27.461-20-34.602z"/>
  <path d="m654.96 448.84c-8.2695 6.6445-13.562 16.305-14.711 26.852-1.1445 10.547 1.9414 21.121 8.5898 29.387 20.156 27.547 31.023 60.789 31.023 94.922s-10.867 67.375-31.023 94.922c-6.7227 8.2539-9.8711 18.852-8.7578 29.438 1.1172 10.59 6.4062 20.297 14.699 26.973s18.906 9.7695 29.488 8.5938c10.582-1.1719 20.262-6.5156 26.891-14.848 31.836-41.664 49.082-92.645 49.082-145.08s-17.246-103.41-49.082-145.08c-6.6523-8.2539-16.305-13.531-26.844-14.668-10.535-1.1406-21.094 1.9453-29.355 8.5859z"/>
  <path d="m814.96 328.84c-8.2695 6.6445-13.562 16.305-14.711 26.852-1.1445 10.547 1.9414 21.121 8.5898 29.387 46.391 62.051 71.461 137.45 71.461 214.92s-25.07 152.87-71.461 214.92c-6.7227 8.2539-9.8711 18.852-8.7578 29.438 1.1172 10.59 6.4062 20.297 14.699 26.973s18.906 9.7695 29.488 8.5938c10.582-1.1719 20.262-6.5156 26.891-14.848 57.219-76.527 88.141-169.52 88.141-265.08s-30.922-188.55-88.141-265.08c-6.6523-8.2539-16.305-13.531-26.844-14.668-10.535-1.1406-21.094 1.9453-29.355 8.5859z"/>
  <path d="m1031.2 214.92c-8.9883-11.043-23.168-16.477-37.234-14.266-14.066 2.2109-25.895 11.734-31.062 25-5.168 13.27-2.8906 28.281 5.9766 39.422 72.293 96.695 111.36 214.19 111.36 334.92s-39.066 238.23-111.36 334.92c-6.7227 8.2539-9.8711 18.852-8.7578 29.438 1.1172 10.59 6.4062 20.297 14.699 26.973s18.906 9.7695 29.488 8.5938c10.582-1.1719 20.262-6.5156 26.891-14.848 83.125-111.18 128.04-246.26 128.04-385.08s-44.914-273.9-128.04-385.08z"/>
 </g>
</svg>
