<?xml version="1.0" encoding="utf-8"?>
<!-- Generator: Adobe Illustrator 26.2.1, SVG Export Plug-In . SVG Version: 6.00 Build 0)  -->
<svg version="1.1" id="Layer_1" xmlns="http://www.w3.org/2000/svg" xmlns:xlink="http://www.w3.org/1999/xlink" x="0px" y="0px"
	 viewBox="0 0 24 24" style="enable-background:new 0 0 24 24;" xml:space="preserve">
<style type="text/css">
	.st0{fill:#2D3142;}
</style>
<path class="st0" d="M12,23c2.9,0,5.7-1.2,7.8-3.2c2.1-2.1,3.2-4.9,3.2-7.8s-1.2-5.7-3.2-7.8C17.7,2.1,14.9,1,12,1S6.3,2.2,4.2,4.2
	C2.1,6.3,1,9.1,1,12s1.2,5.7,3.2,7.8C6.3,21.8,9.1,23,12,23z M6.3,12.3C6.5,12.1,6.7,12,7,12s0.5,0.1,0.7,0.3l2.3,2.3l5.8-5.8
	c0.3-0.2,0.6-0.3,0.9-0.2C17,8.7,17.3,9,17.4,9.3s0,0.7-0.2,0.9l-6.5,6.5C10.5,16.9,10.3,17,10,17s-0.5-0.1-0.7-0.3l-3-3
	C6.1,13.5,6,13.3,6,13S6.1,12.5,6.3,12.3L6.3,12.3z"/>
</svg>
