<?xml version="1.0" encoding="utf-8"?>
<!-- Generator: Adobe Illustrator 26.3.1, SVG Export Plug-In . SVG Version: 6.00 Build 0)  -->
<svg version="1.1" id="Layer_1" xmlns="http://www.w3.org/2000/svg" xmlns:xlink="http://www.w3.org/1999/xlink" x="0px" y="0px"
	 viewBox="0 0 24 24" style="enable-background:new 0 0 24 24;" xml:space="preserve">
<style type="text/css">
	.st0{fill-rule:evenodd;clip-rule:evenodd;fill:#FFFFFF;}
	.st1{fill-rule:evenodd;clip-rule:evenodd;fill:#EC1A2F;}
</style>
<circle class="st0" cx="12" cy="12" r="9.4"/>
<path class="st1" d="M12,1c6.1,0,11,4.9,11,11s-4.9,11-11,11S1,18.1,1,12S5.9,1,12,1L12,1z M6.6,12.1c-0.4-0.4-0.4-1.1,0.1-1.5
	c0.4-0.4,1.1-0.4,1.5,0.1l2.7,3l5.9-6.1c0.4-0.4,1.1-0.4,1.6,0c0.4,0.4,0.4,1.1,0,1.6l-6.7,7l0,0c0,0,0,0-0.1,0
	c-0.4,0.4-1.1,0.4-1.5-0.1L6.6,12.1L6.6,12.1z"/>
</svg>
