<svg xmlns="http://www.w3.org/2000/svg" xmlns:xlink="http://www.w3.org/1999/xlink" version="1.0" x="0px" y="0px" viewBox="0 0 100 100" enable-background="new 0 0 100 100" xml:space="preserve"><g><path d="M26,13h-4.124v12H21c-0.553,0-1,0.448-1,1s0.447,1,1,1h0.876v14H21c-0.553,0-1,0.448-1,1s0.447,1,1,1h0.876v14H21   c-0.553,0-1,0.447-1,1s0.447,1,1,1h0.876v14H21c-0.553,0-1,0.447-1,1s0.447,1,1,1h0.876v12H26h54V13H26z M23.876,15H26v10h-2.124   V15z M23.876,27H26v14h-2.124V27z M23.876,43H26v14h-2.124V43z M23.876,59H26v14h-2.124V59z M23.876,85V75H26v10H23.876z M78,85H28   V15h50V85z"></path><path d="M48,25H34v14h14V25z M46,37H36V27h10V37z"></path><rect x="55" y="25" width="16" height="2"></rect><rect x="55" y="29" width="16" height="2"></rect><rect x="55" y="33" width="12" height="2"></rect><rect x="43" y="49" width="28" height="2"></rect><rect x="43" y="53" width="28" height="2"></rect><rect x="43" y="57" width="28" height="2"></rect><rect x="34" y="49" width="2" height="2"></rect><rect x="34" y="53" width="2" height="2"></rect><rect x="34" y="57" width="2" height="2"></rect><rect x="43" y="65" width="28" height="2"></rect><rect x="43" y="69" width="28" height="2"></rect><rect x="43" y="73" width="28" height="2"></rect><rect x="34" y="65" width="2" height="2"></rect><rect x="34" y="69" width="2" height="2"></rect><rect x="34" y="73" width="2" height="2"></rect></g></svg>