<?xml version="1.0" encoding="UTF-8"?>
<svg width="1200pt" height="1200pt" version="1.1" viewBox="0 0 1200 1200" xmlns="http://www.w3.org/2000/svg">
 <g fill="#1e1e1e">
  <path d="m18.75 1125c4.9727 0 9.7422-1.9766 13.258-5.4922 3.5156-3.5156 5.4922-8.2852 5.4922-13.258v-297.38l339.94 132.09c20.438 9.375 49.031 8.25 65.625-8.1562 4.4805-4.0547 8.2812-8.8008 11.25-14.062l18.75-36c5.8359-12.023 6.5156-25.906 1.875-38.438-5.9844-15.734-18.047-28.406-33.469-35.156l-7.4062-2.8125h197.81c16.84 0.53906 33.188-5.7109 45.375-17.344l1.5938-1.875 1.125 0.46875c3 1.9688 88.594 40.031 88.594 40.031v100.5c0 6.6992 3.5742 12.887 9.375 16.238 5.8008 3.3477 12.949 3.3477 18.75 0 5.8008-3.3516 9.375-9.5391 9.375-16.238v-84.375l177 77.812c19.543 7.5781 41.48 5.7812 59.531-4.875 10.117-6.3398 18.496-15.105 24.375-25.5l69.656-114.38c3.4844-5.7266 3.6484-12.879 0.42969-18.758-3.2188-5.8828-9.332-9.5977-16.031-9.75-6.7031-0.15234-12.977 3.2812-16.461 9.0078l-70.219 115.31-1.125 2.1562c-3.4531 5.4883-8.582 9.7188-14.625 12.066-6.0469 2.3477-12.688 2.6836-18.938 0.96484l-294.75-129.38c-5.9805-2.3711-10.773-7.0273-13.312-12.938-1.2148-2.5508-1.2148-5.5117 0-8.0625l16.875-34.312c3.375-6.5625 16.219-9.8438 28.594-4.4062l225 96.188c6.8945 3.2891 14.801 3.7695 22.043 1.3359 7.2422-2.4297 13.254-7.582 16.77-14.367l83.344-149.16c3.3477-5.8438 3.3281-13.031-0.0625-18.855-3.3867-5.8242-9.6211-9.3945-16.359-9.375-6.7344 0.023438-12.949 3.6367-16.297 9.4805l-80.25 143.62-111.56-47.719 70.5-158.44c5.7422-13.578 5.9219-28.867 0.50391-42.578-5.4141-13.711-16-24.75-29.473-30.734l-18-7.7812c2.4375-1.3125 4.875-2.625 7.4062-3.9375-12.215-6.6758-23.605-14.766-33.938-24.094-5.0625 3.0938-9.8438 6.5625-14.531 10.125l-204.66-89.062c-7.0703-3.082-14.695-4.6758-22.406-4.6875-10.961-0.011719-21.691 3.1484-30.891 9.1055s-16.477 14.453-20.953 24.457l-105.75 237.09c-4.2266 9.4609-5.7227 19.918-4.3125 30.188l-21.938 0.46875v-64.125c-0.28516-30.996-8.5117-61.406-23.887-88.32-15.379-26.918-37.398-49.441-63.957-65.43-10.371 9.3008-21.789 17.355-34.031 24 24.867 11.473 45.984 29.738 60.914 52.699 14.93 22.957 23.062 49.668 23.461 77.051v195l-226.12-85.781 26.906-70.219c2.3945-6.2812 1.2578-13.359-2.9844-18.574-4.2422-5.2148-10.941-7.7695-17.578-6.7031s-12.199 5.5898-14.594 11.871l-29.344 76.594c-3.3906 7.2109-3.6172 15.508-0.62891 22.895 2.9922 7.3867 8.9258 13.191 16.379 16.012l280.78 106.78c5.9648 2.6016 10.699 7.4023 13.219 13.406 1.1758 2.8203 1.1758 5.9922 0 8.8125l-18.75 36c-3.375 6.9375-15.938 10.688-28.125 4.9688l-355.41-138.19v-172.88c0.48828-29.367 9.8125-57.906 26.75-81.902s40.711-42.336 68.219-52.629c-12.043-7.2891-23.18-15.973-33.188-25.875-29.602 15.145-54.496 38.094-71.996 66.367-17.5 28.273-26.934 60.793-27.285 94.039v510.38c0 4.9727 1.9766 9.7422 5.4922 13.258 3.5156 3.5156 8.2852 5.4922 13.258 5.4922zm472.97-480.38 105.56-237.09c1.5234-3.3945 4-6.2734 7.1289-8.2852 3.1289-2.0156 6.7773-3.0781 10.496-3.0586 2.5469-0.007812 5.0664 0.50391 7.4062 1.5l263.91 114.56c4.4258 2.0469 7.8789 5.7383 9.6289 10.285 1.75 4.5508 1.6602 9.6055-0.25391 14.09l-70.594 159-72.938-31.219c-30-13.312-63.844-3.8438-77.156 22.125l-16.406 34.406c-2.2617 4.5352-3.7539 9.4141-4.4062 14.438l-152.81-66.375c-4.4258-2.0469-7.8789-5.7383-9.6289-10.285-1.75-4.5508-1.6602-9.6055 0.25391-14.09zm-60.469 52.875 43.875-0.75c3.4766 2.6523 7.25 4.8867 11.25 6.6562l150 65.156c-1.375 0.10156-2.75 0.10156-4.125 0h-201z"/>
  <path d="m84.375 309.38c0 37.297 14.816 73.066 41.188 99.438s62.141 41.188 99.438 41.188 73.066-14.816 99.438-41.188 41.188-62.141 41.188-99.438-14.816-73.066-41.188-99.438-62.141-41.188-99.438-41.188-73.066 14.816-99.438 41.188-41.188 62.141-41.188 99.438zm243.75 0c0 27.352-10.863 53.582-30.203 72.922s-45.57 30.203-72.922 30.203-53.582-10.863-72.922-30.203-30.203-45.57-30.203-72.922 10.863-53.582 30.203-72.922 45.57-30.203 72.922-30.203 53.582 10.863 72.922 30.203 30.203 45.57 30.203 72.922z"/>
  <path d="m431.25 1003.1c0 10.355-8.3945 18.75-18.75 18.75s-18.75-8.3945-18.75-18.75 8.3945-18.75 18.75-18.75 18.75 8.3945 18.75 18.75"/>
  <path d="m975 450c37.297 0 73.066-14.816 99.438-41.188s41.188-62.141 41.188-99.438-14.816-73.066-41.188-99.438-62.141-41.188-99.438-41.188-73.066 14.816-99.438 41.188-41.188 62.141-41.188 99.438 14.816 73.066 41.188 99.438 62.141 41.188 99.438 41.188zm0-243.75c27.352 0 53.582 10.863 72.922 30.203s30.203 45.57 30.203 72.922-10.863 53.582-30.203 72.922-45.57 30.203-72.922 30.203-53.582-10.863-72.922-30.203-30.203-45.57-30.203-72.922 10.863-53.582 30.203-72.922 45.57-30.203 72.922-30.203z"/>
  <path d="m806.25 1003.1c0 10.355-8.3945 18.75-18.75 18.75s-18.75-8.3945-18.75-18.75 8.3945-18.75 18.75-18.75 18.75 8.3945 18.75 18.75"/>
  <path d="m731.25 890.62c0-4.9727-1.9766-9.7422-5.4922-13.258-3.5156-3.5156-8.2852-5.4922-13.258-5.4922h-91.125c2.7773-4.8945 3.2109-10.781 1.1758-16.031-2.0352-5.2461-6.3203-9.3047-11.672-11.047-5.3516-1.7461-11.203-0.99609-15.941 2.0469l-42.75 28.125c-5.2656 3.4688-8.4336 9.3516-8.4336 15.656s3.168 12.188 8.4336 15.656l42.75 28.125c4.7383 3.043 10.59 3.793 15.941 2.0469 5.3516-1.7422 9.6367-5.8008 11.672-11.047 2.0352-5.25 1.6016-11.137-1.1758-16.031h91.125c4.9727 0 9.7422-1.9766 13.258-5.4922 3.5156-3.5156 5.4922-8.2852 5.4922-13.258z"/>
  <path d="m18.75 37.5h375c4.9727 0 9.7422 1.9766 13.258 5.4922 3.5156 3.5156 5.4922 8.2852 5.4922 13.258v112.5c0 6.6992 3.5742 12.887 9.375 16.238 5.8008 3.3477 12.949 3.3477 18.75 0 5.8008-3.3516 9.375-9.5391 9.375-16.238v-112.5c0-14.918-5.9258-29.227-16.477-39.773-10.547-10.551-24.855-16.477-39.773-16.477h-375c-6.6992 0-12.887 3.5742-16.238 9.375-3.3477 5.8008-3.3477 12.949 0 18.75 3.3516 5.8008 9.5391 9.375 16.238 9.375z"/>
  <path d="m1181.2 1087.5c-4.9727 0-9.7422 1.9766-13.258 5.4922-3.5156 3.5156-5.4922 8.2852-5.4922 13.258v56.25h-1143.8c-6.6992 0-12.887 3.5742-16.238 9.375-3.3477 5.8008-3.3477 12.949 0 18.75 3.3516 5.8008 9.5391 9.375 16.238 9.375h1162.5c4.9727 0 9.7422-1.9766 13.258-5.4922 3.5156-3.5156 5.4922-8.2852 5.4922-13.258v-75c0-4.9727-1.9766-9.7422-5.4922-13.258-3.5156-3.5156-8.2852-5.4922-13.258-5.4922z"/>
  <path d="m18.75 112.5h103.12c6.6992 0 12.887-3.5742 16.238-9.375 3.3477-5.8008 3.3477-12.949 0-18.75-3.3516-5.8008-9.5391-9.375-16.238-9.375h-103.12c-6.6992 0-12.887 3.5742-16.238 9.375-3.3477 5.8008-3.3477 12.949 0 18.75 3.3516 5.8008 9.5391 9.375 16.238 9.375z"/>
  <path d="m1100.7 435.47c-10.008 9.9023-21.145 18.586-33.188 25.875 27.508 10.293 51.281 28.633 68.219 52.629s26.262 52.535 26.75 81.902v435.38c0 6.6992 3.5742 12.887 9.375 16.238 5.8008 3.3477 12.949 3.3477 18.75 0 5.8008-3.3516 9.375-9.5391 9.375-16.238v-435.38c-0.35156-33.246-9.7852-65.766-27.285-94.039-17.5-28.273-42.395-51.223-71.996-66.367z"/>
 </g>
</svg>
