<?xml version="1.0" encoding="UTF-8"?>
<svg width="25px" height="25px" viewBox="0 0 25 25" version="1.1" xmlns="http://www.w3.org/2000/svg" xmlns:xlink="http://www.w3.org/1999/xlink">
    <title>9E238E8D-A582-429C-A0CF-0D55E0E88FB3</title>
    <g id="🔄-Symbols" stroke="none" stroke-width="1" fill="none" fill-rule="evenodd">
        <g id="calendar-modified">
            <path d="M1.78571429,8.03571429 L1.78571429,21.4285714 C1.78571429,22.4129464 2.58649554,23.2142857 3.57142857,23.2142857 L21.4285714,23.2142857 C22.4129464,23.2142857 23.2142857,22.4129464 23.2142857,21.4285714 L23.2142857,8.03571429 L1.78571429,8.03571429 Z" id="Path"></path>
            <path d="M24.9547991,4.79073661 C24.9514509,4.76729911 24.9475446,4.74441964 24.9425223,4.72154018 C24.8052455,3.96149554 24.4274554,3.28515625 23.890625,2.77287946 C23.8621652,2.7421875 23.8314732,2.71428571 23.7991071,2.68805804 C23.1679687,2.12667411 22.3376116,1.78515625 21.4291295,1.78515625 L21.4146205,1.78515625 C21.4001116,1.78515625 21.3850446,1.78515625 21.3705357,1.78515625 L20.5362723,1.78515625 L20.5362723,0.892857143 C20.5362723,0.399553571 20.1367188,0 19.6434152,0 C19.1501116,0 18.750558,0.399553571 18.750558,0.892857143 L18.750558,1.78571429 L18.5329241,1.78571429 C18.3191964,1.78348214 18.0982143,1.78180804 17.8705357,1.77957589 C15.3621652,1.75502232 11.9938616,1.72265625 8.96372768,1.78571429 L6.25055804,1.78571429 L6.25055804,0.892857143 C6.25055804,0.399553571 5.85100446,0 5.35770089,0 C4.86439732,0 4.46484375,0.399553571 4.46484375,0.892857143 L4.46484375,1.78571429 L3.57198661,1.78571429 C2.62444196,1.78571429 1.76283482,2.15736607 1.12276786,2.76116071 C1.09877232,2.78180804 1.07589286,2.80357143 1.05412946,2.82645089 C0.403459821,3.47377232 0,4.36886161 0,5.35714286 L0,21.4285714 C0,23.3978795 1.60212054,25 3.57142857,25 L21.4285714,25 C23.3978795,25 25,23.3978795 25,21.4285714 L25,5.35714286 C25,5.16462054 24.984375,4.97544643 24.9547991,4.79073661 Z M21.4285714,23.2142857 L3.57142857,23.2142857 C2.58649554,23.2142857 1.78571429,22.4129464 1.78571429,21.4285714 L1.78571429,8.03571429 L23.2142857,8.03571429 L23.2142857,21.4285714 C23.2142857,22.4129464 22.4129464,23.2142857 21.4285714,23.2142857 Z" id="Shape" fill="#000000" fill-rule="nonzero"></path>
        </g>
    </g>
</svg>