<?xml version="1.0" encoding="UTF-8"?>
<svg width="25px" height="25px" viewBox="0 0 25 25" version="1.1" xmlns="http://www.w3.org/2000/svg" xmlns:xlink="http://www.w3.org/1999/xlink">
    <title>13A1A1D6-8820-4DC2-8D28-44C78EBD270F</title>
    <g id="🔄-Symbols" stroke="none" stroke-width="1" fill="none" fill-rule="evenodd">
        <g id="icon/base/contact" fill="#000000" fill-rule="nonzero">
            <path d="M24,4 L1,4 C1,4 1,6.875 1,6.875 L1,19.1964286 C1,19.1964286 1,22.0714286 1,22.0714286 L24,22.0714286 C24,22.0714286 24,19.1964286 24,19.1964286 L24,6.875 C23.9983022,5.28788511 24,4 24,4 Z M21.3970089,7.75555804 C15.4656696,12.6113904 12.5,15.0393066 12.5,15.0393066 C12.5,15.0393066 9.53433036,12.6113904 3.60299107,7.75555804 C3.60299107,7.75555804 4.61129464,6.45872768 4.61129464,6.45872768 L12.5,12.8164955 L20.3887054,6.45872768 C20.3887054,6.45872768 21.3970089,7.75555804 21.3970089,7.75555804 Z" id="icon-fill"></path>
        </g>
    </g>
</svg>