<?xml version="1.0" encoding="UTF-8"?>
<svg width="25px" height="25px" viewBox="0 0 25 25" version="1.1" xmlns="http://www.w3.org/2000/svg" xmlns:xlink="http://www.w3.org/1999/xlink">
    <title>88050E52-6E54-4B65-A744-F85EF83DF6DC</title>
    <g id="🔄-Symbols" stroke="none" stroke-width="1" fill="none" fill-rule="evenodd">
        <g id="icon/social/linkedin" fill="#000000" fill-rule="nonzero">
            <g id="linkedin" transform="translate(1.000000, 1.000000)">
                <path d="M21.3571429,0 L1.63772321,0 C0.734151786,0 0,0.744419643 0,1.65825893 L0,21.3417411 C0,22.2555804 0.734151786,23 1.63772321,23 L21.3571429,23 C22.2607143,23 23,22.2555804 23,21.3417411 L23,1.65825893 C23,0.744419643 22.2607143,0 21.3571429,0 Z M6.95133929,19.7142857 L3.54241071,19.7142857 L3.54241071,8.73794643 L6.95647321,8.73794643 L6.95647321,19.7142857 L6.95133929,19.7142857 Z M5.246875,7.23883929 C4.15334821,7.23883929 3.2703125,6.35066964 3.2703125,5.26227679 C3.2703125,4.17388393 4.15334821,3.28571429 5.246875,3.28571429 C6.33526786,3.28571429 7.2234375,4.17388393 7.2234375,5.26227679 C7.2234375,6.35580357 6.34040179,7.23883929 5.246875,7.23883929 L5.246875,7.23883929 Z M19.7296875,19.7142857 L16.3207589,19.7142857 L16.3207589,14.375 C16.3207589,13.1017857 16.2950893,11.4640625 14.5495536,11.4640625 C12.7732143,11.4640625 12.5011161,12.8502232 12.5011161,14.2825893 L12.5011161,19.7142857 L9.0921875,19.7142857 L9.0921875,8.73794643 L12.3625,8.73794643 L12.3625,10.2370536 L12.4087054,10.2370536 C12.865625,9.37455357 13.9796875,8.46584821 15.6379464,8.46584821 C19.0879464,8.46584821 19.7296875,10.7401786 19.7296875,13.6973214 L19.7296875,19.7142857 L19.7296875,19.7142857 Z" id="Shape"></path>
            </g>
        </g>
    </g>
</svg>