<?xml version="1.0" encoding="UTF-8"?>
<svg width="1200pt" height="1200pt" version="1.1" viewBox="0 0 1200 1200" xmlns="http://www.w3.org/2000/svg">
 <g fill="#fff">
  <path d="m1181.2 1042.1-173.81-147.94c38.98-50.793 57.27-114.47 51.176-178.2-6.0938-63.738-36.117-122.8-84.016-165.28-47.902-42.484-110.12-65.238-174.13-63.68-64.008 1.5586-125.05 27.32-170.82 72.086-45.773 44.77-72.883 105.22-75.863 169.18-2.9805 63.957 18.387 126.67 59.797 175.5 41.41 48.832 99.785 80.16 163.37 87.668 63.582 7.5078 127.65-9.3594 179.3-47.203l148.12 174c13.598 13.73 33.488 19.168 52.184 14.258 18.691-4.9102 33.344-19.422 38.438-38.062 5.0898-18.645-0.14844-38.59-13.746-52.32zm-234.75-166.12c-0.64062 0.73438-1.3281 1.4219-2.0625 2.0625l-1.6875 1.875c-36.523 36.457-86.02 56.93-137.62 56.93s-101.1-20.473-137.62-56.93l-1.6875-1.875-1.875-1.875c-35.086-37.031-54.23-86.355-53.312-137.36s21.82-99.609 58.215-135.35c36.395-35.746 85.367-55.773 136.38-55.773s99.984 20.027 136.38 55.773c36.395 35.742 57.297 84.348 58.215 135.35s-18.227 100.33-53.312 137.36z"/>
  <path d="m806.25 773.62c23.445-0.19922 45.012-12.859 56.621-33.23 11.605-20.371 11.5-45.379-0.28125-65.648-11.781-20.27-33.457-32.742-56.902-32.742s-45.121 12.473-56.902 32.742c-11.781 20.27-11.887 45.277-0.28125 65.648 11.609 20.371 33.176 33.031 56.621 33.23-54.016 0.625-103.79 29.422-131.25 75.938 2.8125 3.75 6 7.3125 9.375 11.062l2.0625 1.5 1.3125 1.875c31.586 31.203 74.195 48.699 118.59 48.699s87.008-17.496 118.59-48.699l3.1875-3.1875c3.7383-3.5859 7.2461-7.4062 10.5-11.438-27.566-46.391-77.289-75.09-131.25-75.75z"/>
  <path d="m913.5 1005.6c-5.3906 0.097656-10.531 2.2812-14.344 6.0938s-5.9961 8.9531-6.0938 14.344v107.81h-852.56v-1067.6h701.81v131.25c-0.050781 5.4023 2.0625 10.602 5.8633 14.441 3.8047 3.8359 8.9844 5.9961 14.387 5.9961h131.25v240.94c0.097656 5.3906 2.2812 10.531 6.0938 14.344s8.9531 5.9961 14.344 6.0938c5.3867-0.050781 10.539-2.2227 14.332-6.0508 3.7891-3.8281 5.918-9 5.918-14.387v-262.5c0.027344-5.3711-2.1406-10.516-6-14.25l-150-150c-3.8984-3.9766-9.2422-6.2109-14.812-6.1875h-726.19c-9.9453 0-19.484 3.9492-26.516 10.984-7.0352 7.0312-10.984 16.57-10.984 26.516v1074.4c0 9.9453 3.9492 19.484 10.984 26.516 7.0312 7.0352 16.57 10.984 26.516 10.984h859.12c9.9453 0 19.484-3.9492 26.516-10.984 7.0352-7.0312 10.984-16.57 10.984-26.516v-111.75c0-5.4531-2.1797-10.68-6.0508-14.52-3.875-3.8359-9.1211-5.9688-14.574-5.918z"/>
  <path d="m818.44 333.94c0-7.1445-5.793-12.938-12.938-12.938h-677.44c-7.1445 0-12.938 5.793-12.938 12.938 0 3.4141 1.3672 6.6875 3.8008 9.082 2.4297 2.3984 5.7227 3.7188 9.1367 3.668h678.19c6.8203-0.30078 12.195-5.9219 12.188-12.75z"/>
  <path d="m681.38 469.69c-0.10156-7.0703-5.8633-12.75-12.938-12.75h-540.38c-3.6758-0.44531-7.3633 0.70703-10.137 3.1602-2.7695 2.457-4.3555 5.9805-4.3555 9.6836s1.5859 7.2266 4.3555 9.6836c2.7734 2.4531 6.4609 3.6055 10.137 3.1602h540.38c3.4297 0 6.7227-1.3633 9.1484-3.7891 2.4258-2.4258 3.7891-5.7188 3.7891-9.1484z"/>
  <path d="m540 605.62c0-3.4141-1.3672-6.6875-3.8008-9.082-2.4297-2.3984-5.7227-3.7188-9.1367-3.668h-399c-3.4141-0.050781-6.707 1.2695-9.1367 3.668-2.4336 2.3945-3.8008 5.668-3.8008 9.082 0 7.1445 5.793 12.938 12.938 12.938h399c7.1445 0 12.938-5.793 12.938-12.938z"/>
  <path d="m128.06 754.5h361.12c7.1445 0 12.938-5.793 12.938-12.938 0-3.4141-1.3672-6.6875-3.8008-9.082-2.4297-2.3984-5.7227-3.7188-9.1367-3.668h-361.12c-3.4141-0.050781-6.707 1.2695-9.1367 3.668-2.4336 2.3945-3.8008 5.668-3.8008 9.082 0 7.1445 5.793 12.938 12.938 12.938z"/>
  <path d="m128.06 890.44h338.81c7.1445 0 12.938-5.793 12.938-12.938s-5.793-12.938-12.938-12.938h-338.81c-7.1445 0-12.938 5.793-12.938 12.938s5.793 12.938 12.938 12.938z"/>
  <path d="m128.06 1026.4h390.19c7.1445 0 12.938-5.793 12.938-12.938s-5.793-12.938-12.938-12.938h-390.19c-7.1445 0-12.938 5.793-12.938 12.938s5.793 12.938 12.938 12.938z"/>
  <path d="m128.06 210.94h528.19c7.1445 0 12.938-5.793 12.938-12.938s-5.793-12.938-12.938-12.938h-528.19c-7.1445 0-12.938 5.793-12.938 12.938s5.793 12.938 12.938 12.938z"/>
 </g>
</svg>
