<?xml version="1.0" encoding="utf-8"?>
<!-- Generator: Adobe Illustrator 26.3.1, SVG Export Plug-In . SVG Version: 6.00 Build 0)  -->
<svg version="1.1" id="Layer_1" xmlns="http://www.w3.org/2000/svg" xmlns:xlink="http://www.w3.org/1999/xlink" x="0px" y="0px"
	 viewBox="0 0 25 25" style="enable-background:new 0 0 25 25;" xml:space="preserve">
<style type="text/css">
	.st0{fill:#FFFFFF;}
	.st1{fill:#ED1B2F;}
</style>
<circle class="st0" cx="12.5" cy="12.5" r="7.7"/>
<g id="_xD83D__xDD04_-Symbols">
	<g id="icon_x2F_base_x2F_info">
		<path id="icon-fill" class="st1" d="M12.5,1C6.2,1,1,6.2,1,12.5S6.2,24,12.5,24S24,18.8,24,12.5S18.8,1,12.5,1z M12.5,5.7
			c0.8,0,1.5,0.7,1.5,1.5s-0.7,1.5-1.5,1.5S11,8,11,7.2c0-0.4,0.2-0.8,0.4-1.1C11.7,5.9,12.1,5.7,12.5,5.7L12.5,5.7z M15.3,18.7
			h-5.1c-0.5,0-0.9-0.4-0.9-0.9s0.4-0.9,0.9-0.9h1.6v-5.1h-0.9c-0.5,0-0.9-0.4-0.9-0.9s0.4-0.9,0.9-0.9h1.8c0.5,0,0.9,0.4,0.9,0.9v6
			h1.6c0.5,0,0.9,0.4,0.9,0.9C16.2,18.3,15.8,18.7,15.3,18.7z"/>
	</g>
</g>
</svg>
