<svg xmlns="http://www.w3.org/2000/svg" xmlns:xlink="http://www.w3.org/1999/xlink" version="1.1" x="0px" y="0px" viewBox="0 0 64 64" style="enable-background:new 0 0 64 64;" xml:space="preserve"><g><path d="M60,3H4C3.449,3,3,3.449,3,4v9h58V4C61,3.449,60.551,3,60,3z M10,10H6V6h4V10z M18,10h-4V6h4V10z M26,10h-4V6h4V10z"></path><path d="M3,46c0,0.551,0.449,1,1,1h5.586l3-3H6V32h24v12h-3.459l-0.231,3H60c0.551,0,1-0.449,1-1V15H3V46z M58,44H34V32h24V44z    M44,18h14v10H44V18z M32,18h8v4h-8V18z M20,18h8v4h-8V18z M6,18h10v10H6V18z"></path><polygon points="17.414,42 3.414,56 8,60.586 22,46.586 24.17,48.755 24.914,39.086 15.245,39.83  "></polygon><rect x="37" y="37" width="2" height="2"></rect><rect x="49" y="37" width="2" height="2"></rect><rect x="53" y="37" width="2" height="2"></rect><rect x="41" y="37" width="2" height="2"></rect><rect x="45" y="37" width="2" height="2"></rect></g></svg>