<?xml version="1.0" encoding="UTF-8"?>
<svg width="1200pt" height="1200pt" version="1.1" viewBox="0 0 1200 1200" xmlns="http://www.w3.org/2000/svg">
 <path d="m259.13 54.305c-25.176 0-45.66 20.367-45.66 45.398v1000.6c0 25.043 20.484 45.406 45.66 45.406h681.77c25.176 0 45.637-20.375 45.637-45.406v-727.66h-295.6c-12.551 0-22.727-10.176-22.727-22.738v-295.6l-409.08 0.003906zm454.57 15.914v256.95h247.26zm-122.94 277.95c16.922 0.20313 27.719 7.4883 34.246 14.578 26.113 28.367 15.66 88.754-12.984 181.19 27.949 65.746 69.562 137.15 112.4 188.58 18.91-3.3242 36.996-5.2422 54.121-5.7461 51.551-1.4766 92.746 9.793 115.89 31.738 16.309 15.469 21.758 35.387 14.605 53.316-9.6953 24.324-39.469 38.281-81.684 38.281-38.809 0-80.172-26.953-119.27-68.016-33.816 7.9062-74.062 21.383-121.32 43.188-29.965 13.836-56.41 27.191-79.754 39.973-27.637 77.305-58.598 131.55-124.22 164.36-18.613 9.3008-33.289 12.59-44.734 12.59-11.387 0-19.598-3.2383-25.32-7.1055-11.387-7.6914-17.23-20.676-16.02-35.629 2.9648-36.77 51.539-96.551 173.1-165.59 7.043-20.891 14.23-43.98 22.152-69.445 5.6523-18.168 11.641-37.367 18.168-57.695 8.1367-25.344 17.293-52.234 26.125-78.238 9.3945-27.602 18.926-55.68 27.492-82.523-15.938-40.285-26.676-77.711-30.301-107.09-8.1836-66.48 20.484-83.855 38.293-88.309 7.0664-1.7656 13.379-2.4844 19.008-2.4102zm-0.34766 45.422c-1.3203 0-3.7812 0.13281-7.6445 1.1055-2.7109 0.67188-7.5234 11.34-4.1641 38.641 1.3438 10.969 3.7812 23.062 7.1641 35.953 14.941-62.566 6.6602-74.699 5.8438-75.695-0.023437 0.046875-0.43359 0-1.1992 0zm0.86328 214.16c-3.8281 11.438-7.8125 23.23-11.953 35.398-8.7734 25.824-17.867 52.5-25.895 77.484h0.023438c-6.4922 20.172-12.445 39.289-18.047 57.324-2.6875 8.6406-5.3047 17.074-7.8945 25.309 12.793-6.3711 26.207-12.805 40.234-19.285 37.164-17.148 73.309-30.625 107.55-40.199-31.547-40.512-60.516-88.402-84.023-136.03zm190.81 164.45c-5.832 0.097656-12.059 0.37109-18.66 0.91016 22.656 19.703 44.605 31.523 63.938 31.523 26.027 0 36.59-6.4688 39.023-9.1211-0.98438-1.9219-4.6797-6.6016-14.363-11.438-6.8633-3.4336-29.125-12.551-69.938-11.879zm-340.13 132.09c-65.305 43.465-90.805 76.297-97.777 91.598 4.1641-0.9375 10.164-2.9023 18.277-6.9609 36.898-18.445 60.227-45.574 79.5-84.637z" fill="#444"/>
</svg>
