<?xml version="1.0" encoding="utf-8"?>
<!-- Generator: Adobe Illustrator 26.3.1, SVG Export Plug-In . SVG Version: 6.00 Build 0)  -->
<svg version="1.1" id="Layer_1" xmlns="http://www.w3.org/2000/svg" xmlns:xlink="http://www.w3.org/1999/xlink" x="0px" y="0px"
	 viewBox="0 0 1200 1200" style="enable-background:new 0 0 1200 1200;" xml:space="preserve">
<style type="text/css">
	.st0{fill:#FFFFFF;}
	.st1{fill:#EC1A2F;}
</style>
<circle class="st0" cx="395.5" cy="705.6" r="214.5"/>
<path class="st1" d="M1183.6,376.6c-0.1,66.1-23.9,130-67.2,180.1c-43.2,50-103,82.9-168.4,92.6c-5.9,36.4-3.5,73.7,6.8,109.1
	c1.6,5.5,1,11.4-1.7,16.5s-7.2,8.9-12.7,10.7c-5.4,1.8-11.4,1.4-16.5-1.1c-42.2-20.8-80.2-49.3-112-84v-12
	c-0.1-91.2-36.4-178.7-100.9-243.2c-64.5-64.5-152-100.9-243.2-101h-9.6c8-67,40.2-128.8,90.6-173.6s115.5-69.7,183-69.8h175.6
	c73.2,0,143.4,29.1,195.1,80.8C1154.5,233.2,1183.6,303.4,1183.6,376.6L1183.6,376.6z M745,688.6L745,688.6
	c0,73.2-29.1,143.4-80.8,195.2c-51.8,51.8-122,80.8-195.2,80.8h-46.4c-34.8,66.1-99.7,108.8-145.7,132c-5.2,2.6-11.1,3-16.6,1.3
	s-10.1-5.6-12.8-10.7c-2.7-5.1-3.3-11.1-1.7-16.6c10.1-35.3,12.3-72.4,6.4-108.6c-65.5-9.7-125.3-42.7-168.5-92.8
	s-67-114.2-66.9-180.4c0-73.2,29.1-143.4,80.8-195.2c51.8-51.8,122-80.8,195.2-80.8h176.2c48.5,0,96.1,12.7,138.1,36.9
	c42,24.2,76.9,59.1,101.1,101c24.2,42,37,89.6,37,138.1L745,688.6z M406.1,825.5c0-7.6-3-15-8.4-20.4c-5.4-5.4-12.7-8.4-20.4-8.4
	c-7.6,0-15,3-20.4,8.4c-5.4,5.4-8.4,12.7-8.4,20.4c0,7.6,3,15,8.4,20.4c5.4,5.4,12.7,8.4,20.4,8.4c7.6,0,15-3,20.4-8.4
	C403.1,840.4,406.1,833.1,406.1,825.5z M475.5,618.4L475.5,618.4c-1-25.5-11.7-49.6-30.1-67.4c-18.3-17.8-42.8-27.7-68.3-27.9h-0.6
	h0c-18.4,0.1-36.4,5.3-51.9,15.2c-15.5,9.9-28,23.9-35.9,40.5c-4.5,9.2-3.7,20.2,2.1,28.6c5.8,8.5,15.6,13.2,25.9,12.5
	s19.3-6.9,23.7-16.2c3.3-6.8,8.3-12.6,14.7-16.7c6.4-4.1,13.7-6.3,21.3-6.5c10.6,0.2,20.7,4.3,28.4,11.7
	c7.6,7.4,12.2,17.3,12.8,27.9c0.3,8.6-2.1,17.2-7,24.3c-4.9,7.2-11.9,12.6-20,15.5c-12.2,3.8-22.8,11.4-30.5,21.6
	c-7.6,10.2-11.8,22.6-12,35.4v22.9c0,10.2,5.5,19.7,14.3,24.8c8.9,5.1,19.8,5.1,28.7,0c8.9-5.1,14.3-14.6,14.3-24.8V717
	c0-1.7,2.9-2.6,2.9-2.8c20.1-6.6,37.5-19.5,49.6-36.7c12.1-17.3,18.4-38,17.7-59.1L475.5,618.4z"/>
</svg>
