<?xml version="1.0" encoding="utf-8"?>
<!-- Generator: Adobe Illustrator 26.3.1, SVG Export Plug-In . SVG Version: 6.00 Build 0)  -->
<svg version="1.1" id="Layer_1" xmlns="http://www.w3.org/2000/svg" xmlns:xlink="http://www.w3.org/1999/xlink" x="0px" y="0px"
	 viewBox="0 0 62.3 61.9" style="enable-background:new 0 0 62.3 61.9;" xml:space="preserve">
<style type="text/css">
	.st0{fill:#ED1B2F;}
</style>
<g>
	<path class="st0" d="M13.3,32.1c1.6,0.2,5.1,0.2,5.1,2.4c0,3-4.4,7-11.6,11.2C4.6,47.1,0,49.3,0,52.4c0,2.4,1.7,4.1,5.4,3.6
		c3.5-0.5,8.9-2.9,16-8.9c7.4-6.2,14.4-16.5,14.4-26.6c0-10.3-7-20.6-18.2-20.6c-9,0-16.8,6.8-16.8,16.2
		C0.8,23.2,5.7,31.5,13.3,32.1z"/>
	<path class="st0" d="M35.5,36.6c1.3,0.7,2.7,1.1,4.3,1.3s5.1,0.2,5.1,2.4c0,3-4.4,7-11.6,11.2c-2.2,1.4-6.8,3.6-6.8,6.7
		c0,2.4,1.7,4.1,5.4,3.6c3.5-0.5,8.9-2.9,16-8.9c7.4-6.2,14.4-16.5,14.4-26.7c0-10.3-7-20.6-18.2-20.6c-2.6,0-5.2,0.6-7.4,1.6
		c2.2,4,3.4,8.7,3.4,13.2C40,26.2,38.2,31.7,35.5,36.6z"/>
</g>
</svg>
