<?xml version="1.0" encoding="utf-8"?>
<!-- Generator: Adobe Illustrator 26.2.1, SVG Export Plug-In . SVG Version: 6.00 Build 0)  -->
<svg version="1.1" id="Layer_1" xmlns="http://www.w3.org/2000/svg" xmlns:xlink="http://www.w3.org/1999/xlink" x="0px" y="0px"
	 viewBox="0 0 62.3 61.9" style="enable-background:new 0 0 62.3 61.9;" xml:space="preserve">
<style type="text/css">
	.st0{fill:#EC1A2F;}
</style>
<g>
	<path class="st0" d="M49,29.7c-1.6-0.2-5.1-0.2-5.1-2.4c0-3,4.4-7,11.6-11.2c2.2-1.4,6.8-3.6,6.8-6.7c0-2.4-1.7-4.1-5.4-3.6
		c-3.5,0.5-8.9,2.9-16,8.9c-7.4,6.2-14.4,16.5-14.4,26.6c0,10.3,7,20.6,18.2,20.6c9,0,16.8-6.8,16.8-16.2
		C61.5,38.6,56.6,30.3,49,29.7L49,29.7z"/>
	<path class="st0" d="M26.8,25.3c-1.3-0.7-2.7-1.1-4.3-1.3c-1.6-0.2-5.1-0.2-5.1-2.4c0-3,4.4-7,11.6-11.2c2.2-1.4,6.8-3.6,6.8-6.7
		c0-2.4-1.7-4.1-5.4-3.6c-3.5,0.5-8.9,2.9-16,8.9C7,15.1,0,25.4,0,35.6c0,10.3,7,20.6,18.2,20.6c2.6,0,5.2-0.6,7.4-1.6
		c-2.2-4-3.4-8.7-3.4-13.2C22.3,35.6,24.1,30.1,26.8,25.3L26.8,25.3z"/>
</g>
</svg>
