<?xml version="1.0" encoding="UTF-8"?>
<svg width="1200pt" height="1200pt" version="1.1" viewBox="0 0 1200 1200" xmlns="http://www.w3.org/2000/svg">
 <g fill="#ec1a2f">
  <path d="m1013.3 28.848h-767.77c-7.4023 0-13.414 6-13.414 13.414v45.973h-45.445c-7.4023 0-13.402 6-13.402 13.414v1056.1c0 7.4023 6 13.414 13.402 13.414h767.77c7.4023 0 13.414-6 13.414-13.414v-45.973h45.445c7.4023 0 13.402-6 13.402-13.414v-1056.1c0.011719-7.4062-5.9883-13.406-13.402-13.406zm-72.266 1115.5h-740.95v-1029.3h740.95zm58.848-59.375h-32.027v-983.32c0-7.4023-6.0117-13.414-13.414-13.414l-695.51-0.003906v-32.555h740.95z"/>
  <path d="m252.71 360.62h636.25c5.5547 0 10.055-4.5 10.055-10.055 0-5.543-4.5-10.055-10.055-10.055l-636.25-0.003906c-5.5547 0-10.055 4.5-10.055 10.055 0 5.5469 4.5 10.059 10.055 10.059z"/>
  <path d="m888.96 404.93h-636.25c-5.5547 0-10.055 4.5-10.055 10.055s4.5 10.055 10.055 10.055h636.25c5.5547 0 10.055-4.5 10.055-10.055s-4.5-10.055-10.055-10.055z"/>
  <path d="m888.96 469.33h-636.25c-5.5547 0-10.055 4.5-10.055 10.055 0 5.5547 4.5 10.055 10.055 10.055l636.25 0.003906c5.5547 0 10.055-4.5 10.055-10.055 0-5.5469-4.5-10.059-10.055-10.059z"/>
  <path d="m888.96 533.75h-636.25c-5.5547 0-10.055 4.5-10.055 10.055 0 5.5547 4.5 10.055 10.055 10.055l636.25 0.003906c5.5547 0 10.055-4.5 10.055-10.055 0-5.5586-4.5-10.059-10.055-10.059z"/>
  <path d="m888.96 598.16h-636.25c-5.5547 0-10.055 4.5-10.055 10.055 0 5.543 4.5 10.055 10.055 10.055l636.25 0.003906c5.5547 0 10.055-4.5 10.055-10.055 0-5.5469-4.5-10.059-10.055-10.059z"/>
  <path d="m888.96 662.58h-636.25c-5.5547 0-10.055 4.5-10.055 10.055 0 5.5547 4.5 10.055 10.055 10.055l636.25 0.003906c5.5547 0 10.055-4.5 10.055-10.055 0-5.5586-4.5-10.059-10.055-10.059z"/>
  <path d="m888.96 726.98h-636.25c-5.5547 0-10.055 4.5-10.055 10.055 0 5.543 4.5 10.055 10.055 10.055l636.25 0.003906c5.5547 0 10.055-4.5 10.055-10.055 0-5.5469-4.5-10.059-10.055-10.059z"/>
  <path d="m888.96 791.41h-437.32c-5.543 0-10.055 4.5-10.055 10.055 0 5.5547 4.5117 10.055 10.055 10.055l437.32 0.003907c5.5547 0 10.055-4.5 10.055-10.055 0-5.5586-4.5-10.059-10.055-10.059z"/>
  <path d="m888.96 855.82h-437.32c-5.543 0-10.055 4.5-10.055 10.055 0 5.5547 4.5117 10.055 10.055 10.055l437.32 0.003907c5.5547 0 10.055-4.5 10.055-10.055 0-5.5586-4.5-10.059-10.055-10.059z"/>
  <path d="m888.96 920.24h-437.32c-5.543 0-10.055 4.5-10.055 10.055 0 5.543 4.5117 10.055 10.055 10.055l437.32 0.003907c5.5547 0 10.055-4.5 10.055-10.055 0-5.5586-4.5-10.059-10.055-10.059z"/>
  <path d="m888.96 984.65h-437.32c-5.543 0-10.055 4.5-10.055 10.055s4.5117 10.055 10.055 10.055l437.32 0.003907c5.5547 0 10.055-4.5 10.055-10.055 0-5.5586-4.5-10.059-10.055-10.059z"/>
  <path d="m888.96 1049.1h-636.25c-5.5547 0-10.055 4.5-10.055 10.055 0 5.543 4.5 10.055 10.055 10.055l636.25 0.003906c5.5547 0 10.055-4.5 10.055-10.055 0-5.5469-4.5-10.059-10.055-10.059z"/>
  <path d="m888.45 294.68h-635.74c-5.5547 0-10.055-4.5-10.055-10.055v-117.35c0-5.543 4.5-10.055 10.055-10.055h635.75c5.543 0 10.055 4.5 10.055 10.055v117.35c-0.007812 5.5547-4.5195 10.055-10.062 10.055z"/>
  <path d="m396.89 1004.8h-144.18c-5.5547 0-10.055-4.5-10.055-10.055v-193.24c0-5.543 4.5-10.055 10.055-10.055h144.19c5.5547 0 10.055 4.5 10.055 10.055v193.25c-0.007813 5.5469-4.5078 10.047-10.066 10.047z"/>
 </g>
</svg>
