<svg xmlns="http://www.w3.org/2000/svg" xmlns:xlink="http://www.w3.org/1999/xlink" version="1.1" x="0px" y="0px" viewBox="0 0 100 100" enable-background="new 0 0 100 100" xml:space="preserve"><g><path fill="#000000" d="M84.443,2.404H20.462c-0.617,0-1.118,0.5-1.118,1.118v3.831h-3.787c-0.617,0-1.117,0.5-1.117,1.118v88.009   c0,0.617,0.5,1.118,1.117,1.118h63.981c0.617,0,1.118-0.5,1.118-1.118v-3.831h3.787c0.617,0,1.117-0.5,1.117-1.118V3.521   C85.561,2.904,85.061,2.404,84.443,2.404z M78.421,95.361H16.675V9.587h61.746V95.361z M83.325,90.413h-2.669V8.47   c0-0.617-0.501-1.118-1.118-1.118H21.579V4.639h61.746V90.413z"></path><g><path fill="#000000" d="M21.059,30.052H74.08c0.463,0,0.838-0.375,0.838-0.838c0-0.462-0.375-0.838-0.838-0.838H21.059    c-0.463,0-0.838,0.375-0.838,0.838C20.221,29.676,20.596,30.052,21.059,30.052z"></path><path fill="#000000" d="M74.08,33.744H21.059c-0.463,0-0.838,0.375-0.838,0.838s0.375,0.838,0.838,0.838H74.08    c0.463,0,0.838-0.375,0.838-0.838S74.543,33.744,74.08,33.744z"></path><path fill="#000000" d="M74.08,39.111H21.059c-0.463,0-0.838,0.375-0.838,0.838c0,0.463,0.375,0.838,0.838,0.838H74.08    c0.463,0,0.838-0.375,0.838-0.838C74.918,39.487,74.543,39.111,74.08,39.111z"></path><path fill="#000000" d="M74.08,44.479H21.059c-0.463,0-0.838,0.375-0.838,0.838s0.375,0.838,0.838,0.838H74.08    c0.463,0,0.838-0.375,0.838-0.838S74.543,44.479,74.08,44.479z"></path><path fill="#000000" d="M74.08,49.847H21.059c-0.463,0-0.838,0.375-0.838,0.838c0,0.462,0.375,0.838,0.838,0.838H74.08    c0.463,0,0.838-0.375,0.838-0.838C74.918,50.223,74.543,49.847,74.08,49.847z"></path><path fill="#000000" d="M74.08,55.215H21.059c-0.463,0-0.838,0.375-0.838,0.838s0.375,0.838,0.838,0.838H74.08    c0.463,0,0.838-0.375,0.838-0.838S74.543,55.215,74.08,55.215z"></path><path fill="#000000" d="M74.08,60.582H21.059c-0.463,0-0.838,0.375-0.838,0.838c0,0.462,0.375,0.838,0.838,0.838H74.08    c0.463,0,0.838-0.375,0.838-0.838C74.918,60.958,74.543,60.582,74.08,60.582z"></path><path fill="#000000" d="M74.08,65.951H37.637c-0.462,0-0.838,0.375-0.838,0.838c0,0.463,0.376,0.838,0.838,0.838H74.08    c0.463,0,0.838-0.375,0.838-0.838C74.918,66.326,74.543,65.951,74.08,65.951z"></path><path fill="#000000" d="M74.08,71.318H37.637c-0.462,0-0.838,0.375-0.838,0.838s0.376,0.838,0.838,0.838H74.08    c0.463,0,0.838-0.375,0.838-0.838S74.543,71.318,74.08,71.318z"></path><path fill="#000000" d="M74.08,76.687H37.637c-0.462,0-0.838,0.375-0.838,0.838c0,0.462,0.376,0.838,0.838,0.838H74.08    c0.463,0,0.838-0.375,0.838-0.838C74.918,77.062,74.543,76.687,74.08,76.687z"></path><path fill="#000000" d="M74.08,82.054H37.637c-0.462,0-0.838,0.375-0.838,0.838s0.376,0.838,0.838,0.838H74.08    c0.463,0,0.838-0.375,0.838-0.838S74.543,82.054,74.08,82.054z"></path><path fill="#000000" d="M74.08,87.422H21.059c-0.463,0-0.838,0.375-0.838,0.838c0,0.462,0.375,0.838,0.838,0.838H74.08    c0.463,0,0.838-0.375,0.838-0.838C74.918,87.798,74.543,87.422,74.08,87.422z"></path></g><path fill="#000000" d="M74.037,24.557H21.059c-0.463,0-0.838-0.375-0.838-0.838v-9.779c0-0.462,0.375-0.838,0.838-0.838h52.979   c0.462,0,0.838,0.375,0.838,0.838v9.779C74.875,24.182,74.499,24.557,74.037,24.557z"></path><path fill="#000000" d="M33.074,83.73H21.059c-0.463,0-0.838-0.375-0.838-0.838V66.789c0-0.462,0.375-0.838,0.838-0.838h12.016   c0.463,0,0.838,0.375,0.838,0.838v16.104C33.912,83.355,33.537,83.73,33.074,83.73z"></path></g></svg>