<?xml version="1.0" encoding="utf-8"?>
<!-- Generator: Adobe Illustrator 26.5.0, SVG Export Plug-In . SVG Version: 6.00 Build 0)  -->
<svg version="1.1" id="Layer_1" xmlns="http://www.w3.org/2000/svg" xmlns:xlink="http://www.w3.org/1999/xlink" x="0px" y="0px"
	 viewBox="0 0 1200 1200" style="enable-background:new 0 0 1200 1200;" xml:space="preserve">
<style type="text/css">
	.st0{fill:#ED1B2F;}
	.st1{fill:#FFFFFF;}
</style>
<circle class="st0" cx="600" cy="600" r="588.1"/>
<g>
	<path class="st1" d="M828.1,284.7H404.3c-4.1,0-7.4,3.3-7.4,7.4v25.4h-25.1c-4.1,0-7.4,3.3-7.4,7.4v583c0,4.1,3.3,7.4,7.4,7.4
		h423.9c4.1,0,7.4-3.3,7.4-7.4v-25.4h25.1c4.1,0,7.4-3.3,7.4-7.4v-583C835.5,288,832.2,284.7,828.1,284.7L828.1,284.7z M788.3,900.5
		h-409V332.3h409V900.5z M820.7,867.8H803V324.9c0-4.1-3.3-7.4-7.4-7.4H411.7v-18h409V867.8z"/>
	<path class="st1" d="M408.3,467.9h351.2c3.1,0,5.6-2.4,5.6-5.6c0-3.1-2.4-5.6-5.6-5.6H408.3c-3.1,0-5.6,2.4-5.6,5.6
		S405.2,467.9,408.3,467.9L408.3,467.9z"/>
	<path class="st1" d="M759.5,492.4H408.3c-3.1,0-5.6,2.4-5.6,5.6c0,3.1,2.4,5.6,5.6,5.6h351.2c3.1,0,5.6-2.4,5.6-5.6
		C765,494.8,762.5,492.4,759.5,492.4z"/>
	<path class="st1" d="M759.5,527.9H408.3c-3.1,0-5.6,2.4-5.6,5.6c0,3.1,2.4,5.6,5.6,5.6h351.2c3.1,0,5.6-2.4,5.6-5.6
		C765,530.4,762.5,527.9,759.5,527.9L759.5,527.9z"/>
	<path class="st1" d="M759.5,563.4H408.3c-3.1,0-5.6,2.4-5.6,5.6c0,3.1,2.4,5.6,5.6,5.6h351.2c3.1,0,5.6-2.4,5.6-5.6
		C765,566,762.5,563.4,759.5,563.4L759.5,563.4z"/>
	<path class="st1" d="M759.5,599H408.3c-3.1,0-5.6,2.4-5.6,5.6c0,3.1,2.4,5.6,5.6,5.6h351.2c3.1,0,5.6-2.4,5.6-5.6
		C765,601.5,762.5,599,759.5,599L759.5,599z"/>
	<path class="st1" d="M759.5,634.6H408.3c-3.1,0-5.6,2.4-5.6,5.6c0,3.1,2.4,5.6,5.6,5.6h351.2c3.1,0,5.6-2.4,5.6-5.6
		C765,637.1,762.5,634.6,759.5,634.6L759.5,634.6z"/>
	<path class="st1" d="M759.5,670.1H408.3c-3.1,0-5.6,2.4-5.6,5.6c0,3.1,2.4,5.6,5.6,5.6h351.2c3.1,0,5.6-2.4,5.6-5.6
		C765,672.7,762.5,670.1,759.5,670.1L759.5,670.1z"/>
	<path class="st1" d="M759.5,705.7H518.1c-3.1,0-5.6,2.4-5.6,5.6c0,3.1,2.5,5.6,5.6,5.6h241.4c3.1,0,5.6-2.4,5.6-5.6
		C765,708.1,762.5,705.7,759.5,705.7L759.5,705.7z"/>
	<path class="st1" d="M759.5,741.3H518.1c-3.1,0-5.6,2.4-5.6,5.6c0,3.1,2.5,5.6,5.6,5.6h241.4c3.1,0,5.6-2.4,5.6-5.6
		C765,743.7,762.5,741.3,759.5,741.3L759.5,741.3z"/>
	<path class="st1" d="M759.5,776.8H518.1c-3.1,0-5.6,2.4-5.6,5.6c0,3.1,2.5,5.6,5.6,5.6h241.4c3.1,0,5.6-2.4,5.6-5.6
		C765,779.3,762.5,776.8,759.5,776.8L759.5,776.8z"/>
	<path class="st1" d="M759.5,812.4H518.1c-3.1,0-5.6,2.4-5.6,5.6c0,3.1,2.5,5.6,5.6,5.6h241.4c3.1,0,5.6-2.4,5.6-5.6
		C765,814.9,762.5,812.4,759.5,812.4L759.5,812.4z"/>
	<path class="st1" d="M759.5,848H408.3c-3.1,0-5.6,2.4-5.6,5.6c0,3.1,2.4,5.6,5.6,5.6h351.2c3.1,0,5.6-2.4,5.6-5.6
		C765,850.4,762.5,848,759.5,848z"/>
	<path class="st1" d="M759.2,431.5h-351c-3.1,0-5.6-2.4-5.6-5.6v-64.8c0-3.1,2.4-5.6,5.6-5.6h351c3.1,0,5.6,2.4,5.6,5.6v64.8
		C764.7,429,762.3,431.5,759.2,431.5L759.2,431.5z"/>
	<path class="st1" d="M487.8,823.5h-79.6c-3.1,0-5.6-2.4-5.6-5.6V711.3c0-3.1,2.4-5.6,5.6-5.6h79.6c3.1,0,5.6,2.4,5.6,5.6V818
		C493.4,821,490.9,823.5,487.8,823.5L487.8,823.5z"/>
</g>
</svg>
