<?xml version="1.0" encoding="UTF-8"?>
<svg width="1200pt" height="1200pt" version="1.1" viewBox="0 0 1200 1200" xmlns="http://www.w3.org/2000/svg">
 <path d="m1074.5 262.5h-413.55c11.367-13.711 18.164-31.289 18.164-50.391 0-43.594-35.508-79.102-79.102-79.102s-79.102 35.508-79.102 79.102c0 19.102 6.7969 36.68 18.164 50.391h-413.55c-18.164 0-33.047 14.766-33.047 32.93v596.48c0 18.164 14.766 33.047 33.047 33.047h375.59v106.88h-64.922c-9.7266 0-17.578 7.8516-17.578 17.578 0 9.7266 7.8516 17.578 17.578 17.578h327.54c9.7266 0 17.578-7.8516 17.578-17.578 0-9.7266-7.8516-17.578-17.578-17.578h-64.922v-106.88h375.59c18.164 0 33.047-14.766 33.047-32.93v-596.48c0.11719-18.281-14.648-33.047-32.93-33.047zm-766.29 522.07h-75.469v-43.594c0-6.4453-5.2734-11.719-11.719-11.719s-11.719 5.2734-11.719 11.719v43.594h-51.562c-3.2812 0-5.8594-2.5781-5.8594-5.8594v-73.125c0-24.961 14.766-47.695 37.617-57.773l83.789-37.148c3.9844-1.7578 8.6719-0.58594 11.367 2.9297l23.555 30.82zm-48.398-228.05c-15.703-19.219-24.258-44.062-24.258-70.195 0-25.664 8.6719-47.109 24.961-61.758 15.117-13.594 35.625-20.859 59.414-20.859s44.297 7.1484 59.414 20.859c16.289 14.766 24.961 36.094 24.961 61.758 0 26.133-8.6719 51.094-24.258 70.195-16.172 19.688-37.5 30.586-60 30.586-22.734 0-44.062-10.781-60.234-30.586zm228.16 222.19c0 3.2812-2.5781 5.8594-5.8594 5.8594h-51.562v-43.594c0-6.4453-5.2734-11.719-11.719-11.719s-11.719 5.2734-11.719 11.719v43.594h-75.469v-139.92l24.141-31.172c2.6953-3.5156 7.3828-4.6875 11.367-2.8125l83.32 37.148c22.734 10.195 37.5 32.812 37.5 57.773zm491.25-425.27c29.883 0 49.922 19.688 49.922 48.984 0 32.109-22.852 59.18-49.922 59.18s-49.922-27.07-49.922-59.18c0-29.297 20.039-48.984 49.922-48.984zm-280.2 0c29.883 0 49.922 19.688 49.922 48.984 0 32.109-22.852 59.18-49.922 59.18-27.07 0-49.922-27.07-49.922-59.18 0-29.297 20.039-48.984 49.922-48.984zm-99.023-165.82c13.359 0 24.258 10.898 24.258 24.258s-10.898 24.258-24.258 24.258-24.258-10.898-24.258-24.258 10.898-24.258 24.258-24.258zm195.94 702.19h-193.83v-23.203c0-15 8.9062-28.711 22.617-34.805l46.992-20.859c3.3984-1.5234 7.2656-0.46875 9.4922 2.4609l17.812 23.32 18.164-23.438c2.2266-2.9297 6.0938-3.8672 9.4922-2.3438l46.758 20.859c13.711 6.0938 22.617 19.805 22.617 34.805v23.203zm-146.84-160.66c0-29.297 20.039-48.984 49.922-48.984 29.883 0 49.922 19.688 49.922 48.984 0 32.109-22.852 59.18-49.922 59.18-27.07 0-49.922-27.07-49.922-59.18zm423.28 160.66h-190.2v-23.203c0-15 8.9062-28.711 22.617-34.805l46.992-20.859c3.3984-1.5234 7.2656-0.46875 9.4922 2.4609l17.812 23.32 18.164-23.438c2.2266-2.9297 6.0938-3.8672 9.4922-2.3438l46.758 20.859c8.4375 3.75 15 10.312 18.867 18.281zm-143.09-160.66c0-29.297 20.039-48.984 49.922-48.984s49.922 19.688 49.922 48.984c0 32.109-22.852 59.18-49.922 59.18s-49.922-27.07-49.922-59.18zm146.84-136.76h-225.35v297.42h-23.438v-297.42h-256.05-0.58594v297.42h-23.438v-592.15h23.438v271.29h0.58594 30.82v-29.18c0-15 8.9062-28.711 22.617-34.805l46.992-20.859c3.3984-1.5234 7.2656-0.46875 9.4922 2.4609l17.812 23.203 18.047-23.32c2.2266-2.9297 6.0938-3.8672 9.4922-2.3438l46.758 20.859c13.711 6.0938 22.617 19.805 22.617 34.805v29.18h31.406v-271.29h23.438v271.29h31.406v-29.18c0-15 8.9062-28.711 22.617-34.805l46.992-20.859c3.3984-1.5234 7.2656-0.46875 9.4922 2.4609l17.812 23.203 18.047-23.32c2.2266-2.9297 6.0938-3.8672 9.4922-2.3438l46.758 20.859c8.4375 3.75 15 10.312 18.867 18.398 2.4609 5.0391 3.75 10.664 3.75 16.406v52.617z" fill="#ec1a2f"/>
</svg>
