<svg xmlns="http://www.w3.org/2000/svg" xmlns:xlink="http://www.w3.org/1999/xlink" version="1.1" x="0px" y="0px" viewBox="0 0 33 33" enable-background="new 0 0 33 33" xml:space="preserve"><rect x="7.314" y="5.084" width="14.432" height="6.111"></rect><path d="M32.116,8.75l-1.742-1.105c-0.26-0.166-0.61-0.09-0.775,0.174l-0.766,1.205l-2.641,4.158l-7.886,12.422l-0.027,0.041  l-0.014,0.08l-0.428,2.41c-0.088,0.496,0.151,0.707,0.257,0.775c0.106,0.068,0.399,0.193,0.813-0.1l1.999-1.41l0.065-0.045  l0.026-0.045l7.887-12.42l2.641-4.158l0.765-1.205C32.456,9.266,32.377,8.916,32.116,8.75z M19.651,27.369l-0.824-0.523l0.123-0.686  l1.271,0.807L19.651,27.369z M30.891,10.33l-1.426-0.904l0.665-1.047l1.425,0.904L30.891,10.33z"></path><path d="M23.98,30.32c0,0.316-0.257,0.572-0.572,0.572H4.083c-0.315,0-0.572-0.256-0.572-0.572v-1.637  c0.558-0.107,1.001-0.381,1.272-0.771c0.019,0.002,0.036,0.006,0.056,0.006c0.533,0,0.965-0.432,0.965-0.965  s-0.432-0.967-0.965-0.967c-0.532,0-0.965,0.434-0.965,0.967c0,0.152,0.039,0.295,0.103,0.424c-0.104,0.141-0.263,0.248-0.466,0.314  v-3.189c0.558-0.107,1.001-0.381,1.272-0.77c0.019,0,0.036,0.006,0.056,0.006c0.533,0,0.965-0.434,0.965-0.967  c0-0.531-0.432-0.965-0.965-0.965c-0.532,0-0.965,0.434-0.965,0.965c0,0.154,0.039,0.297,0.103,0.424  c-0.104,0.141-0.262,0.248-0.466,0.316V20.32c0.558-0.107,1.001-0.379,1.272-0.77c0.019,0.002,0.036,0.006,0.056,0.006  c0.533,0,0.965-0.434,0.965-0.965c0-0.533-0.432-0.967-0.965-0.967c-0.532,0-0.965,0.434-0.965,0.967  c0,0.152,0.039,0.295,0.103,0.424c-0.104,0.141-0.262,0.248-0.466,0.314v-3.189c0.558-0.107,1.001-0.381,1.272-0.77  c0.019,0,0.036,0.004,0.056,0.004c0.533,0,0.965-0.432,0.965-0.965s-0.432-0.965-0.965-0.965c-0.532,0-0.965,0.432-0.965,0.965  c0,0.152,0.039,0.295,0.103,0.424c-0.104,0.141-0.262,0.248-0.466,0.314v-3.189c0.558-0.107,1.001-0.381,1.272-0.77  c0.019,0,0.036,0.006,0.056,0.006c0.533,0,0.965-0.434,0.965-0.965c0-0.533-0.432-0.967-0.965-0.967  c-0.532,0-0.965,0.434-0.965,0.967c0,0.152,0.039,0.295,0.103,0.424c-0.104,0.139-0.262,0.246-0.466,0.314V7.777  c0.558-0.105,1.001-0.379,1.272-0.77C4.802,7.01,4.82,7.014,4.839,7.014c0.533,0,0.965-0.432,0.965-0.965S5.373,5.084,4.839,5.084  c-0.532,0-0.965,0.432-0.965,0.965c0,0.152,0.039,0.295,0.103,0.424C3.874,6.613,3.715,6.721,3.511,6.787V2.682  c0-0.316,0.257-0.572,0.572-0.572h19.324c0.315,0,0.572,0.256,0.572,0.572V15.33l1.608-2.533V2.682c0-1.203-0.979-2.182-2.181-2.182  H4.083c-1.202,0-2.181,0.979-2.181,2.182v1.779C1.141,4.754,0.624,5.344,0.624,6.049s0.518,1.295,1.279,1.586v1.008  C1.141,8.934,0.624,9.525,0.624,10.23c0,0.703,0.518,1.295,1.279,1.586v1.008c-0.762,0.291-1.279,0.881-1.279,1.586  s0.518,1.295,1.279,1.588v1.006c-0.762,0.293-1.279,0.883-1.279,1.588s0.518,1.295,1.279,1.586v1.008  c-0.762,0.291-1.279,0.881-1.279,1.586s0.518,1.295,1.279,1.588v1.006c-0.762,0.293-1.279,0.883-1.279,1.588  s0.518,1.295,1.279,1.588v1.779c0,1.201,0.979,2.18,2.181,2.18h19.324c1.202,0,2.181-0.979,2.181-2.18v-8.902l-1.608,2.531V30.32z   M1.588,6.049c0-0.174,0.117-0.354,0.314-0.5v1C1.706,6.4,1.588,6.221,1.588,6.049z M1.588,10.23c0-0.174,0.117-0.354,0.314-0.502  v1.002C1.706,10.582,1.588,10.402,1.588,10.23z M1.588,14.41c0-0.172,0.117-0.352,0.314-0.5v1  C1.706,14.764,1.588,14.584,1.588,14.41z M1.588,18.592c0-0.174,0.117-0.354,0.314-0.502v1.002  C1.706,18.943,1.588,18.764,1.588,18.592z M1.588,22.771c0-0.172,0.117-0.352,0.314-0.5v1.002  C1.706,23.125,1.588,22.945,1.588,22.771z M1.588,26.953c0-0.172,0.117-0.352,0.314-0.5v1C1.706,27.307,1.588,27.127,1.588,26.953z"></path></svg>