<?xml version="1.0" encoding="UTF-8"?>
<svg width="1200pt" height="1200pt" version="1.1" viewBox="0 0 1200 1200" xmlns="http://www.w3.org/2000/svg">
 <g fill="#1e1e1e">
  <path d="m681.91 300.57h-586.01c-5.125 0-9.2656-4.1523-9.2656-9.2773v-108.17c0-5.125 4.1523-9.2656 9.2656-9.2656h586.01c5.1133 0 9.2656 4.1523 9.2656 9.2656v108.17c0.011719 5.1406-4.1523 9.2773-9.2656 9.2773z"/>
  <path d="m228.8 955.11h-132.9c-5.125 0-9.2656-4.1523-9.2656-9.2656l0.003906-178.13c0-5.1133 4.1523-9.2656 9.2656-9.2656h132.9c5.125 0 9.2656 4.1523 9.2656 9.2656l-0.003906 178.13c0.011719 5.125-4.1367 9.2656-9.2617 9.2656z"/>
  <path d="m798.27 856.11c10.559-5.9414 20.594-12.672 30.059-20.102v-372.91c-9.4688-7.4414-19.5-14.16-30.059-20.102z"/>
  <path d="m864.24 497.86v303.39c11.711-14.016 21.793-29.41 30.059-45.875l0.003906-211.64c-8.2695-16.473-18.359-31.859-30.062-45.875z"/>
  <path d="m747.96 432.16c0-6.0703-4.9219-11.004-10.992-11.004h-117.54c-18.77 5.1836-36.613 12.613-53.207 21.996h170.75c6.0703 0.011718 10.992-4.9219 10.992-10.992z"/>
  <path d="m736.97 491.59h-231c-6.2383 6.9727-12.059 14.316-17.461 21.996h248.46c6.0703 0 10.992-4.9336 10.992-11.004 0-6.0742-4.9219-10.992-10.992-10.992z"/>
  <path d="m736.97 562.01h-274.69c-2.8555 7.1758-5.3867 14.496-7.5352 21.996h282.23c6.0703 0 10.992-4.9336 10.992-11.004 0-6.0586-4.9219-10.992-10.992-10.992z"/>
  <path d="m736.97 632.45h-290.83c-0.39453 5.6641-0.68359 11.352-0.68359 17.113 0 1.6328 0.085937 3.2539 0.12109 4.8828h291.39c6.0703 0 10.992-4.9219 10.992-11.004 0-6.0742-4.9219-10.992-10.992-10.992z"/>
  <path d="m736.97 702.86h-285.4c1.7383 7.4766 3.8047 14.809 6.2266 21.996h279.18c6.0703 0 10.992-4.9219 10.992-11.004-0.007812-6.0703-4.9297-10.992-11-10.992z"/>
  <path d="m736.97 773.29h-256.55c4.7031 7.6328 9.8398 14.965 15.348 21.996h241.2c6.0703 0 10.992-4.9336 10.992-11.004 0-6.0742-4.9219-10.992-10.992-10.992z"/>
  <path d="m736.97 843.72h-190.13c12.121 8.4961 25.078 15.863 38.711 21.996h151.41c6.0703 0 10.992-4.9336 10.992-11.004 0.003907-6.0703-4.918-10.992-10.988-10.992z"/>
  <path d="m1163.7 1065.3-253.28-253.27c32.762-45.863 52.152-101.94 52.152-162.49 0-154.51-125.71-280.22-280.21-280.22-154.51 0-280.21 125.71-280.21 280.22 0 154.5 125.7 280.21 280.21 280.21 60.551 0 116.63-19.367 162.5-52.152l253.28 253.27c9.0469 9.0469 20.914 13.57 32.773 13.57 11.855 0 23.723-4.5234 32.773-13.57 18.105-18.105 18.105-47.457 0.007813-65.566zm-736.82-415.77c0-141.11 114.37-255.49 255.48-255.49 141.1 0 255.48 114.38 255.48 255.49 0 141.1-114.38 255.48-255.48 255.48-141.11 0-255.48-114.37-255.48-255.48z"/>
  <path d="m95.902 361.36h586.49c5.125 0 9.2656-4.1523 9.2656-9.2656 0-5.125-4.1523-9.2656-9.2656-9.2656l-586.49 0.003906c-5.125 0-9.2656 4.1406-9.2656 9.2656 0.003906 5.1211 4.1445 9.2617 9.2656 9.2617z"/>
  <path d="m95.902 420.74h444.38c11.258-7.0195 23.074-13.234 35.375-18.539h-479.76c-5.125 0-9.2656 4.1523-9.2656 9.2773 0.003906 5.0977 4.1445 9.2617 9.2656 9.2617z"/>
  <path d="m95.902 480.11h377.14c5.2188-6.4453 10.738-12.613 16.512-18.539l-393.65-0.003906c-5.125 0-9.2656 4.1523-9.2656 9.2656 0.003906 5.1367 4.1445 9.2773 9.2656 9.2773z"/>
  <path d="m95.902 539.48h340.66c2.8203-6.3008 5.8086-12.504 9.1094-18.539h-349.77c-5.125 0-9.2656 4.1523-9.2656 9.2656 0.003906 5.1094 4.1445 9.2734 9.2656 9.2734z"/>
  <path d="m95.902 598.86h321.95c1.1992-6.2539 2.5938-12.445 4.2109-18.539h-326.16c-5.125 0-9.2656 4.1523-9.2656 9.2773 0.003906 5.1094 4.1445 9.2617 9.2656 9.2617z"/>
  <path d="m95.902 658.23h317.34c-0.097657-2.8906-0.22656-5.7617-0.22656-8.6758 0-3.3008 0.13281-6.5898 0.25391-9.8633h-317.37c-5.125 0-9.2656 4.1523-9.2656 9.2656 0.003906 5.125 4.1445 9.2734 9.2656 9.2734z"/>
  <path d="m95.902 717.61h325.8c-1.5703-6.0977-2.9023-12.289-4.0547-18.539l-321.75-0.003907c-5.125 0-9.2656 4.1523-9.2656 9.2773 0.003906 5.1133 4.1445 9.2656 9.2656 9.2656z"/>
  <path d="m279.29 776.99h165.76c-3.2539-6.0352-6.2266-12.254-9.0117-18.539h-156.75c-5.1367 0-9.2656 4.1523-9.2656 9.2656 0 5.1211 4.1406 9.2734 9.2656 9.2734z"/>
  <path d="m279.29 836.36h209.15c-5.7227-5.9297-11.16-12.109-16.309-18.539h-192.84c-5.1367 0-9.2656 4.1523-9.2656 9.2656 0 5.1094 4.1406 9.2734 9.2656 9.2734z"/>
  <path d="m279.29 895.74h293.81c-12.035-5.3516-23.605-11.555-34.645-18.539h-259.16c-5.1367 0-9.2656 4.1523-9.2656 9.2773 0 5.1133 4.1406 9.2617 9.2656 9.2617z"/>
  <path d="m682.39 936.56h-403.1c-5.1367 0-9.2656 4.1523-9.2656 9.2656 0 5.125 4.1406 9.2656 9.2656 9.2656h403.11c5.125 0 9.2656-4.1523 9.2656-9.2656 0.007813-5.1016-4.1445-9.2656-9.2695-9.2656z"/>
  <path d="m682.39 995.96h-586.49c-5.125 0-9.2656 4.1523-9.2656 9.2656s4.1523 9.2656 9.2656 9.2656h586.49c5.125 0 9.2656-4.1523 9.2656-9.2656 0.011719-5.125-4.1406-9.2656-9.2656-9.2656z"/>
  <path d="m784.66 898.77v130.27h-29.52v-120.15c-8.1016 2.2695-16.332 4.1523-24.73 5.6641v169.2l-683 0.003906v-948.76h682.99v249.54c8.3867 1.5117 16.633 3.4062 24.73 5.6641l0.003907-267.57c0-6.8281-5.5312-12.359-12.371-12.359h-641.1v-30h682.99v320.06c8.4727 3.4805 16.727 7.3555 24.73 11.641v-344.08c0-6.8281-5.5312-12.359-12.359-12.359h-707.73c-6.8164 0-12.348 5.5312-12.348 12.359v42.371l-41.895 0.003906c-6.8164 0-12.359 5.5312-12.359 12.359v973.5c0 6.8281 5.543 12.359 12.359 12.359h707.71c6.8398 0 12.371-5.5312 12.371-12.359v-42.371h41.879c6.8281 0 12.359-5.5312 12.359-12.359l0.003906-154.27c-8.0039 4.2812-16.246 8.1602-24.719 11.641z"/>
 </g>
</svg>
