<?xml version="1.0" encoding="UTF-8"?>
<svg width="1200pt" height="1200pt" version="1.1" viewBox="0 0 1200 1200" xmlns="http://www.w3.org/2000/svg">
 <g fill="#1e1e1e">
  <path d="m221.02 365h318.49c4.8242 0 8.7461-3.9102 8.7461-8.7461 0-4.8359-3.9102-8.7461-8.7461-8.7461l-318.49-0.003907c-4.8242 0-8.7461 3.9102-8.7461 8.7461 0 4.8398 3.9219 8.75 8.7461 8.75z"/>
  <path d="m539.51 387.53h-318.49c-4.8242 0-8.7461 3.9102-8.7461 8.7461 0 4.8242 3.9102 8.7461 8.7461 8.7461h318.49c4.8242 0 8.7461-3.9258 8.7461-8.7461 0.003906-4.832-3.9219-8.7461-8.7461-8.7461z"/>
  <path d="m539.51 427.54h-318.49c-4.8242 0-8.7461 3.9102-8.7461 8.7461 0 4.8242 3.9102 8.7461 8.7461 8.7461h318.49c4.8242 0 8.7461-3.9258 8.7461-8.7461 0.003906-4.832-3.9219-8.7461-8.7461-8.7461z"/>
  <path d="m539.51 467.54h-318.49c-4.8242 0-8.7461 3.9102-8.7461 8.7461 0 4.8359 3.9102 8.7461 8.7461 8.7461h318.49c4.8242 0 8.7461-3.9102 8.7461-8.7461 0.003906-4.8203-3.9219-8.7461-8.7461-8.7461z"/>
  <path d="m91.836 525.05h232.34c4.8359 0 8.7461-3.9258 8.7461-8.7461 0-4.8359-3.9102-8.7461-8.7461-8.7461l-232.34-0.003907c-4.8242 0-8.7461 3.9102-8.7461 8.7461 0.011718 4.8281 3.9219 8.75 8.7461 8.75z"/>
  <path d="m91.836 565.04h232.34c4.8242 0 8.7461-3.9102 8.7461-8.7461s-3.9102-8.7461-8.7461-8.7461l-232.34-0.003906c-4.8242 0-8.7461 3.9102-8.7461 8.7461 0.011718 4.8398 3.9219 8.75 8.7461 8.75z"/>
  <path d="m91.836 605.06h232.34c4.8242 0 8.7461-3.9102 8.7461-8.7461 0-4.8359-3.9102-8.7461-8.7461-8.7461l-232.34-0.003906c-4.8242 0-8.7461 3.9258-8.7461 8.7461 0 4.8281 3.9219 8.75 8.7461 8.75z"/>
  <path d="m91.836 645.07h232.34c4.8242 0 8.7461-3.9102 8.7461-8.7461 0-4.8359-3.9102-8.7461-8.7461-8.7461l-232.34-0.003906c-4.8242 0-8.7461 3.9258-8.7461 8.7461 0 4.8281 3.9219 8.75 8.7461 8.75z"/>
  <path d="m91.836 685.08h232.34c4.8242 0 8.7461-3.9102 8.7461-8.7461 0-4.8359-3.9102-8.7461-8.7461-8.7461h-232.34c-4.8242 0-8.7461 3.9258-8.7461 8.7461 0 4.8242 3.9219 8.7461 8.7461 8.7461z"/>
  <path d="m91.836 725.09h232.34c4.8242 0 8.7461-3.9258 8.7461-8.7461 0-4.8242-3.9102-8.7461-8.7461-8.7461l-232.34-0.003906c-4.8242 0-8.7461 3.9258-8.7461 8.7461 0.011718 4.8242 3.9219 8.75 8.7461 8.75z"/>
  <path d="m539.51 747.61h-447.67c-4.8242 0-8.7461 3.9102-8.7461 8.7461s3.9102 8.7461 8.7461 8.7461h447.67c4.8242 0 8.7461-3.9258 8.7461-8.7461 0.003906-4.8242-3.9219-8.7461-8.7461-8.7461z"/>
  <path d="m539.51 787.63h-447.67c-4.8242 0-8.7461 3.9102-8.7461 8.7461 0 4.8359 3.9102 8.7461 8.7461 8.7461h447.67c4.8242 0 8.7461-3.9258 8.7461-8.7461 0.003906-4.8242-3.9219-8.7461-8.7461-8.7461z"/>
  <path d="m1035.2 321.46h-943.39c-4.8242 0-8.7461-3.9102-8.7461-8.7461v-102.02c0-4.8242 3.9102-8.7461 8.7461-8.7461h943.38c4.8242 0 8.7461 3.9102 8.7461 8.7461v102.02c0.015624 4.8203-3.9102 8.7461-8.7344 8.7461z"/>
  <path d="m186.04 485h-94.199c-4.8242 0-8.7461-3.9258-8.7461-8.7461v-119.99c0-4.8359 3.9102-8.7461 8.7461-8.7461h94.199c4.8242 0 8.7461 3.9102 8.7461 8.7461v119.99c-0.007812 4.8203-3.9219 8.7461-8.7461 8.7461z"/>
  <path d="m851.15 404.32c-12.695-2.9141-25.883-4.5-39.445-4.5-13.559 0-26.746 1.5977-39.445 4.5-10.836 2.4961-21.301 5.9883-31.273 10.379h141.45c-9.9805-4.4023-20.445-7.8828-31.281-10.379z"/>
  <path d="m936.47 451.8c-3.6133-3.625-7.3789-7.0664-11.293-10.367h-226.96c-3.8984 3.3008-7.6797 6.7578-11.281 10.367-3.3008 3.3242-6.4453 6.793-9.4922 10.379h268.51c-3.0469-3.5859-6.1992-7.0547-9.4883-10.379z"/>
  <path d="m800.57 499.27c0 5.7227 4.6562 10.367 10.379 10.367h163.8c-1.4297-3.5039-2.9414-6.9844-4.5859-10.367-1.7148-3.5391-3.5898-6.9844-5.5195-10.379l-153.69-0.003906c-5.7266 0-10.383 4.6445-10.383 10.383z"/>
  <path d="m800.57 546.74c0 5.7227 4.6562 10.367 10.379 10.367h175.75c-0.35938-3.4922-0.86328-6.9492-1.4414-10.367-0.58984-3.5039-1.2852-6.9609-2.0625-10.379h-172.25c-5.7266 0-10.383 4.6445-10.383 10.379z"/>
  <path d="m810.95 583.85c-5.7344 0-10.379 4.6445-10.379 10.379 0 5.7344 4.6562 10.379 10.379 10.379l174.37 0.003906c0.57422-3.4336 1.0664-6.8867 1.4297-10.379 0.35938-3.4336 0.60156-6.8867 0.75781-10.379z"/>
  <path d="m800.57 641.7c0 5.7344 4.6562 10.379 10.379 10.379h159.38c1.6445-3.3945 3.1211-6.8633 4.5469-10.379 1.3789-3.4062 2.6523-6.875 3.8164-10.379h-167.74c-5.7266 0-10.383 4.6445-10.383 10.379z"/>
  <path d="m800.57 689.17c0 5.7344 4.6562 10.379 10.379 10.379h125.8c3.3008-3.3242 6.4453-6.793 9.4688-10.379 2.832-3.3594 5.5312-6.8164 8.1133-10.379h-143.38c-5.7266 0-10.383 4.6445-10.383 10.379z"/>
  <path d="m800.57 736.63c0 5.7344 4.6562 10.379 10.379 10.379h41.594c10.609-2.5312 20.832-6.0117 30.613-10.379 6.8516-3.0469 13.5-6.5039 19.859-10.379h-92.062c-5.7266 0-10.383 4.6523-10.383 10.379z"/>
  <path d="m769.43 488.89h-110.69c-14.652 25.68-23.062 55.332-23.062 86.953 0 82.836 57.539 152.46 134.75 171.07 5.2578-0.50391 9.3828-4.8828 9.3828-10.273v-237.36c0-5.7461-4.6328-10.391-10.379-10.391z"/>
  <path d="m613.74 575.83c0-24 4.2734-47.004 12.098-68.281h-266.66c-4.8242 0-8.7461 3.9102-8.7461 8.7461v200.04c0 4.8242 3.9102 8.7461 8.7461 8.7461h322.56c-41.637-36.281-67.992-89.672-67.992-149.25z"/>
  <path d="m955.64 1040.6-57.371-57.383c-2.1953-2.1836-5.1602-3.4219-8.2578-3.4219h-159.36l-45.047-79.188h382.68l-72.395-72.395h-951.95v-666.25h1039.2v617.12l23.316 23.316v-652.11c0-6.4453-5.2188-11.664-11.652-11.664h-1062.5c-6.4336 0-11.664 5.2188-11.664 11.664v738.66c0 6.4336 5.2305 11.664 11.664 11.664h409.19l-45.047 79.188h-159.36c-3.0977 0-6.0586 1.2344-8.2422 3.4219l-58.309 58.297c-3.3359 3.3359-4.332 8.3516-2.5312 12.707s6.0586 7.1992 10.777 7.1992h769.57 0.10938c6.4453 0 11.664-5.2188 11.664-11.664-0.003906-3.7188-1.7461-7.0312-4.457-9.168z"/>
  <path d="m587.55 365h447.67c4.8242 0 8.7461-3.9102 8.7461-8.7461 0-4.8359-3.9258-8.7461-8.7461-8.7461l-447.67-0.003907c-4.8242 0-8.7461 3.9102-8.7461 8.7461 0 4.8398 3.9219 8.75 8.7461 8.75z"/>
  <path d="m587.55 405.02h141.32c6.875-3.3359 14.004-6.2383 21.312-8.7461 12.156-4.1641 24.863-7.1172 38.004-8.7461l-200.64-0.003906c-4.8242 0-8.7461 3.9102-8.7461 8.7461 0 4.8281 3.9219 8.75 8.7461 8.75z"/>
  <path d="m1035.2 387.53h-200.03c13.141 1.6211 25.836 4.5703 38.004 8.7461 7.2969 2.5078 14.438 5.4102 21.312 8.7461h140.71c4.8242 0 8.7461-3.9258 8.7461-8.7461 0.003906-4.832-3.9219-8.7461-8.7461-8.7461z"/>
  <path d="m587.55 445.02h86.699c2.8555-3 5.7969-5.9414 8.8438-8.7461 3.2891-3.0352 6.7188-5.9414 10.211-8.7461h-105.76c-4.8242 0-8.7461 3.9102-8.7461 8.7461 0.003906 4.8359 3.9258 8.7461 8.75 8.7461z"/>
  <path d="m1035.2 427.54h-105.14c3.5039 2.7969 6.9102 5.6992 10.211 8.7461 3.0586 2.8086 6 5.7461 8.8555 8.7461h86.074c4.8242 0 8.7461-3.9258 8.7461-8.7461 0.007812-4.832-3.918-8.7461-8.7422-8.7461z"/>
  <path d="m1035.2 467.54h-67.691c1.9922 2.8555 3.9258 5.7734 5.7461 8.7461 1.7773 2.8672 3.4922 5.7734 5.1133 8.7461h56.82c4.8242 0 8.7461-3.9102 8.7461-8.7461 0.015624-4.8203-3.9102-8.7461-8.7344-8.7461z"/>
  <path d="m587.55 485.04h57.445c1.6211-2.9766 3.3242-5.8789 5.1016-8.7461 1.8359-2.9766 3.7578-5.8789 5.7617-8.7461h-68.305c-4.8242 0-8.7461 3.9102-8.7461 8.7461-0.003906 4.8359 3.918 8.7461 8.7422 8.7461z"/>
  <path d="m1035.2 507.55h-46.441c1.1055 2.8789 2.1602 5.7969 3.1211 8.7461 0.96094 2.8906 1.8477 5.7969 2.6641 8.7461h40.668c4.8242 0 8.7461-3.9258 8.7461-8.7461-0.007813-4.832-3.9336-8.7461-8.7578-8.7461z"/>
  <path d="m1035.2 547.56h-35.844c0.43359 2.8906 0.81641 5.8086 1.1172 8.7461 0.28906 2.8906 0.50391 5.8086 0.67188 8.7461h34.066c4.8242 0 8.7461-3.9102 8.7461-8.7461-0.007813-4.832-3.9336-8.7461-8.7578-8.7461z"/>
  <path d="m1035.2 587.57h-34.141c-0.17969 2.9414-0.40625 5.8555-0.71875 8.7461-0.3125 2.9297-0.69531 5.8555-1.1289 8.7461h35.977c4.8242 0 8.7461-3.9102 8.7461-8.7461 0.003906-4.832-3.9102-8.7461-8.7344-8.7461z"/>
  <path d="m1035.2 627.57h-40.934c-0.83984 2.9531-1.7383 5.8555-2.7109 8.7461-0.99609 2.9531-2.0508 5.8672-3.1797 8.7461h46.812c4.8242 0 8.7461-3.9102 8.7461-8.7461 0.003906-4.832-3.9102-8.7461-8.7344-8.7461z"/>
  <path d="m1035.2 667.6h-57.383c-1.6445 2.9648-3.3711 5.8789-5.1602 8.7461-1.8711 2.9766-3.8164 5.8789-5.832 8.7461h68.375c4.8242 0 8.7461-3.9102 8.7461-8.7461 0.003906-4.8359-3.9219-8.7461-8.7461-8.7461z"/>
  <path d="m587.55 765.1h210.74c-15.672-1.0938-30.805-4.0781-45.215-8.7461-7.5977-2.4609-14.977-5.3867-22.117-8.7461l-143.41-0.003907c-4.8242 0-8.7461 3.9102-8.7461 8.7461 0 4.8359 3.9219 8.75 8.7461 8.75z"/>
  <path d="m892.43 747.61c-7.1406 3.3594-14.531 6.2773-22.129 8.7461-14.387 4.668-29.531 7.6562-45.203 8.7461h107.69l-17.484-17.496z"/>
  <path d="m587.55 787.63c-4.8242 0-8.7461 3.9102-8.7461 8.7461 0 4.8359 3.9102 8.7461 8.7461 8.7461h385.25l-17.496-17.496z"/>
  <path d="m1035.2 707.59h-23.566l17.496 17.496h6.0703c4.8242 0 8.7461-3.9258 8.7461-8.7461 0.003906-4.8281-3.9219-8.75-8.7461-8.75z"/>
  <path d="m1169.3 884.7-188.16-188.16c24.348-34.066 38.746-75.73 38.746-120.71 0-114.78-93.383-208.18-208.16-208.18s-208.16 93.383-208.16 208.18c0 114.78 93.371 208.15 208.16 208.15 44.988 0 86.641-14.387 120.72-38.746l188.16 188.15c6.7305 6.7305 15.539 10.094 24.348 10.094 8.8086 0 17.629-3.3594 24.348-10.094 13.465-13.43 13.465-35.234 0.003906-48.688zm-547.37-308.87c0-104.83 84.973-189.8 189.79-189.8 104.82 0 189.78 84.984 189.78 189.8 0 104.82-84.961 189.78-189.78 189.78-104.82 0-189.79-84.961-189.79-189.78z"/>
 </g>
</svg>
