<?xml version="1.0" encoding="UTF-8"?>
<svg width="1200pt" height="1200pt" version="1.1" viewBox="0 0 1200 1200" xmlns="http://www.w3.org/2000/svg">
 <g fill="#1e1e1e">
  <path d="m318.75 1125c0 10.352 8.418 18.75 18.75 18.75h112.5c10.332 0 18.75-8.3984 18.75-18.75v-243.75h-150z"/>
  <path d="m318.75 761.2v82.555h150v-82.555c-24.242 4.9297-49.312 7.5547-75 7.5547s-50.758-2.625-75-7.5547z"/>
  <path d="m731.25 393.75c0-186.09-151.41-337.5-337.5-337.5s-337.5 151.41-337.5 337.5 151.41 337.5 337.5 337.5 337.5-151.41 337.5-337.5zm-618.75 0c0-155.32 125.93-281.25 281.25-281.25s281.25 125.93 281.25 281.25-125.93 281.25-281.25 281.25-281.25-125.93-281.25-281.25z"/>
  <path d="m1143.8 18.75h-187.5c-20.68 0-37.5 16.82-37.5 37.5v37.5h-112.5v187.5h-54.789c3.8633 12.242 7.1445 24.75 9.7305 37.5h82.559v-187.5h75v37.5c0 20.68 16.82 37.5 37.5 37.5h187.5c20.68 0 37.5-16.82 37.5-37.5v-112.5c0-20.68-16.82-37.5-37.5-37.5zm-112.5 112.5h-37.5v-37.5h37.5zm75 0h-37.5v-37.5h37.5z"/>
  <path d="m1143.8 281.25h-187.5c-20.68 0-37.5 16.82-37.5 37.5v37.5h-151.89c1.2188 12.336 1.8945 24.844 1.8945 37.5h150v37.5c0 20.68 16.82 37.5 37.5 37.5h187.5c20.68 0 37.5-16.82 37.5-37.5v-112.5c0-20.68-16.82-37.5-37.5-37.5zm-112.5 112.5h-37.5v-37.5h37.5zm75 0h-37.5v-37.5h37.5z"/>
  <path d="m1143.8 543.75h-187.5c-20.68 0-37.5 16.82-37.5 37.5v37.5h-75v-187.5h-76.895c-1.2734 12.695-3.1484 25.199-5.6641 37.5h45.059v187.5h112.5v37.5c0 20.68 16.82 37.5 37.5 37.5h187.5c20.68 0 37.5-16.82 37.5-37.5v-112.5c0-20.68-16.82-37.5-37.5-37.5zm-112.5 112.5h-37.5v-37.5h37.5zm75 0h-37.5v-37.5h37.5z"/>
  <path d="m731.25 956.25h187.5c20.68 0 37.5-16.82 37.5-37.5v-112.5c0-20.68-16.82-37.5-37.5-37.5h-187.5c-20.68 0-37.5 16.82-37.5 37.5h-75v75h-112.5v37.5h150v-75h37.5v75c0 20.68 16.82 37.5 37.5 37.5zm112.5-112.5h37.5v37.5h-37.5zm-75 0h37.5v37.5h-37.5z"/>
  <path d="m1143.8 993.75h-187.5c-20.68 0-37.5 16.82-37.5 37.5v37.5h-75v-75h-337.5v37.5h300v75h112.5v37.5c0 20.68 16.82 37.5 37.5 37.5h187.5c20.68 0 37.5-16.82 37.5-37.5v-112.5c0-20.68-16.82-37.5-37.5-37.5zm-112.5 112.5h-37.5v-37.5h37.5zm75 0h-37.5v-37.5h37.5z"/>
  <path d="m450 581.25v-51.711l36.562 36.562 79.555-79.555-36.562-36.547h51.695v-112.5h-51.695l36.562-36.562-79.555-79.539-36.562 36.562v-51.711h-112.5v51.711l-36.562-36.562-79.555 79.539 36.562 36.562h-51.695v112.5h51.695l-36.562 36.543 79.555 79.555 36.562-36.562v51.715zm-56.25-243.75c31.07 0 56.25 25.18 56.25 56.25s-25.18 56.25-56.25 56.25-56.25-25.18-56.25-56.25 25.18-56.25 56.25-56.25z"/>
 </g>
</svg>
