<?xml version="1.0" encoding="UTF-8"?>
<svg width="1200pt" height="1200pt" version="1.1" viewBox="0 0 1200 1200" xmlns="http://www.w3.org/2000/svg">
 <g fill="#1e1e1e">
  <path d="m806.25 656.25h37.5v37.5h-37.5z"/>
  <path d="m881.25 656.25h37.5v37.5h-37.5z"/>
  <path d="m956.25 656.25h37.5v37.5h-37.5z"/>
  <path d="m243.75 881.25h262.5v37.5h-262.5z"/>
  <path d="m75 243.75h180.34l36.281 72.543c1.8398 3.6758 8.3828 2.1367 8.3828-1.9688v-70.574h37.5c10.352 0 18.75-8.3984 18.75-18.75v-150c0-10.352-8.3984-18.75-18.75-18.75h-262.5c-10.352 0-18.75 8.3984-18.75 18.75v150c0 10.352 8.3984 18.75 18.75 18.75zm243.75-37.5h-37.5v-37.5h37.5zm-112.5-112.5h112.5v37.5h-112.5zm0 75h37.5v37.5h-37.5zm-112.5-75h75v37.5h-75zm0 75h75v37.5h-75z"/>
  <path d="m243.75 956.25h262.5v37.5h-262.5z"/>
  <path d="m375 1143.8c65.98 0 120.6-49.012 129.75-112.5h-259.5c9.1484 63.488 63.77 112.5 129.75 112.5z"/>
  <path d="m900 431.25c-134.4 0-243.75 109.35-243.75 243.75s109.35 243.75 243.75 243.75 243.75-109.35 243.75-243.75-109.35-243.75-243.75-243.75zm0 431.25c-103.55 0-187.5-83.945-187.5-187.5s83.945-187.5 187.5-187.5 187.5 83.945 187.5 187.5-83.945 187.5-187.5 187.5z"/>
  <path d="m843.75 950.59v155.66c0 20.68 16.82 37.5 37.5 37.5h37.5c20.68 0 37.5-16.82 37.5-37.5v-155.66c-18.188 3.6953-36.992 5.6641-56.25 5.6641s-38.062-1.9688-56.25-5.6641z"/>
  <path d="m1068.8 18.75c-62.043 0-112.5 50.457-112.5 112.5 0 24.262 7.8008 46.688 20.906 65.082l-53.062 53.062c-7.332-3.5273-15.43-5.6445-24.094-5.6445s-16.762 2.1172-24.094 5.6445l-42.77-42.77c6.582-11.176 10.613-24 10.613-37.875 0-41.363-33.637-75-75-75s-75 33.637-75 75c0 12.094 3.1484 23.363 8.25 33.488l-69.207 60.562c-0.95703-1.332-1.8008-2.7383-2.7734-4.0508-56.137-74.812-143.38-121.39-236.27-126.94v93.188c0 31.012-25.238 56.25-56.25 56.25v33.074c0 23.121-18.805 41.926-41.926 41.926-15.977 0-30.32-8.8867-37.48-23.156l-25.93-51.844h-127.33c-31.688 50.68-48.582 108.77-48.582 168.75 0 94.18 28.93 184.5 83.68 261.17l94.707 132.58h84.113v-150h-150v-225h112.5v150h-37.5v-112.5h-37.5v150h150v187.5h37.5v-187.5h150v-300h-37.5v262.5h-37.5v-300h112.5v375h-150v150h84.113l94.727-132.58c3.3945-4.7422 6.582-9.6172 9.7695-14.492-0.56641-7.1836-1.1094-14.363-1.1094-21.676 0-72.656 27.918-138.75 73.312-188.72 0.97656-12.055 1.6875-24.227 1.6875-36.281 0-54.188-14.363-107.91-40.633-155.16l73.367-64.199c12.059 8.25 26.59 13.105 42.266 13.105 13.875 0 26.699-4.0312 37.855-10.633l42.77 42.77c-3.5078 7.3516-5.625 15.449-5.625 24.113 0 31.012 25.238 56.25 56.25 56.25s56.25-25.238 56.25-56.25c0-8.6641-2.1172-16.762-5.6445-24.094l53.062-53.062c18.395 13.105 40.82 20.906 65.082 20.906 62.043 0 112.5-50.457 112.5-112.5s-50.457-112.5-112.5-112.5zm-637.5 600h-37.5v-187.5h-37.5v187.5h-37.5v-225h112.5z"/>
 </g>
</svg>
