<?xml version="1.0" encoding="UTF-8"?>
<svg width="1200pt" height="1200pt" version="1.1" viewBox="0 0 1200 1200" xmlns="http://www.w3.org/2000/svg">
 <path d="m725.04 290.64c66.133 66.133 66.203 174.79 0 240.9-66.148 66.219-174.74 66.16-240.9 0-66.191-66.16-66.117-174.73 0-240.9 66.191-66.117 174.73-66.176 240.9 0zm195.12 667.01c6.5898-5.8945 13.012-11.977 19.262-18.227 186.41-186.38 186.41-492.47 0-678.85-186.38-186.41-492.47-186.41-678.85 0-186.41 186.38-186.41 492.47 0 678.85 6.25 6.25 12.672 12.332 19.262 18.227v-113.77c0-57.715 23.598-110.16 61.625-148.18 38.012-38.027 90.469-61.625 148.18-61.625h220.71c57.715 0 110.17 23.598 148.18 61.625 38.027 38.027 61.625 90.469 61.625 148.18zm61.668 24.18c-209.71 209.75-553.95 209.75-763.66 0-209.75-209.71-209.75-553.95 0-763.66 209.71-209.75 553.95-209.75 763.66 0 209.75 209.71 209.75 553.95 0 763.66z" fill="#1e1e1e"/>
</svg>
