<?xml version="1.0" encoding="UTF-8"?>
<svg width="1200pt" height="1200pt" version="1.1" viewBox="0 0 1200 1200" xmlns="http://www.w3.org/2000/svg">
 <g fill="#ec1a2f">
  <path d="m982.8 199.2h-765.6c-103.2 0-187.2 84-187.2 187.2v427.2c0 103.2 84 187.2 187.2 187.2h766.8c103.2 0 187.2-84 187.2-187.2v-427.2c-1.1992-103.2-85.199-187.2-188.4-187.2zm109.2 614.4c0 60-49.199 109.2-109.2 109.2h-765.6c-60 0-109.2-49.199-109.2-109.2v-427.2c0-60 49.199-109.2 109.2-109.2h766.8c60 0 109.2 49.199 109.2 109.2v427.2z"/>
  <path d="m751.2 574.8-235.2-156c-20.398-13.199-46.801 1.1992-46.801 25.199v312c0 24 26.398 38.398 46.801 25.199l235.2-156c18-12 18-38.398 0-50.398z"/>
 </g>
</svg>
