<svg xmlns="http://www.w3.org/2000/svg" xmlns:xlink="http://www.w3.org/1999/xlink" viewBox="0 0 64 64" version="1.1" x="0px" y="0px"><title>9</title><desc>Created with Sketch.</desc><g stroke="none" stroke-width="1" fill="none" fill-rule="evenodd"><g fill="#000000" fill-rule="nonzero"><path d="M2,7 L2,58 L62,58 L62,7 L2,7 Z M2,5 L62,5 C63.1045695,5 64,5.8954305 64,7 L64,58 C64,59.1045695 63.1045695,60 62,60 L2,60 C0.8954305,60 3.57315355e-16,59.1045695 2.22044605e-16,58 L0,7 C-1.3527075e-16,5.8954305 0.8954305,5 2,5 Z M4.5,12.5 C3.3954305,12.5 2.5,11.6045695 2.5,10.5 C2.5,9.3954305 3.3954305,8.5 4.5,8.5 C5.6045695,8.5 6.5,9.3954305 6.5,10.5 C6.5,11.6045695 5.6045695,12.5 4.5,12.5 Z M4.5,11.5 C5.05228475,11.5 5.5,11.0522847 5.5,10.5 C5.5,9.94771525 5.05228475,9.5 4.5,9.5 C3.94771525,9.5 3.5,9.94771525 3.5,10.5 C3.5,11.0522847 3.94771525,11.5 4.5,11.5 Z M9.5,12.5 C8.3954305,12.5 7.5,11.6045695 7.5,10.5 C7.5,9.3954305 8.3954305,8.5 9.5,8.5 C10.6045695,8.5 11.5,9.3954305 11.5,10.5 C11.5,11.6045695 10.6045695,12.5 9.5,12.5 Z M9.5,11.5 C10.0522847,11.5 10.5,11.0522847 10.5,10.5 C10.5,9.94771525 10.0522847,9.5 9.5,9.5 C8.94771525,9.5 8.5,9.94771525 8.5,10.5 C8.5,11.0522847 8.94771525,11.5 9.5,11.5 Z M14.5,12.5 C13.3954305,12.5 12.5,11.6045695 12.5,10.5 C12.5,9.3954305 13.3954305,8.5 14.5,8.5 C15.6045695,8.5 16.5,9.3954305 16.5,10.5 C16.5,11.6045695 15.6045695,12.5 14.5,12.5 Z M14.5,11.5 C15.0522847,11.5 15.5,11.0522847 15.5,10.5 C15.5,9.94771525 15.0522847,9.5 14.5,9.5 C13.9477153,9.5 13.5,9.94771525 13.5,10.5 C13.5,11.0522847 13.9477153,11.5 14.5,11.5 Z M2,14 L62,14 L62,16 L2,16 L2,14 Z M7,20 C6.44771525,20 6,20.4477153 6,21 L6,53 C6,53.5522847 6.44771525,54 7,54 L21,54 C21.5522847,54 22,53.5522847 22,53 L22,21 C22,20.4477153 21.5522847,20 21,20 L7,20 Z M7,19 L21,19 C22.1045695,19 23,19.8954305 23,21 L23,53 C23,54.1045695 22.1045695,55 21,55 L7,55 C5.8954305,55 5,54.1045695 5,53 L5,21 C5,19.8954305 5.8954305,19 7,19 Z M40,20 L28,20 C27.4477153,20 27,20.4477153 27,21 L27,29 C27,29.5522847 27.4477153,30 28,30 L40,30 C40.5522847,30 41,29.5522847 41,29 L41,21 C41,20.4477153 40.5522847,20 40,20 Z M40,19 C41.1045695,19 42,19.8954305 42,21 L42,29 C42,30.1045695 41.1045695,31 40,31 L28,31 C26.8954305,31 26,30.1045695 26,29 L26,21 C26,19.8954305 26.8954305,19 28,19 L40,19 Z M58,34 C58.5522847,34 59,34.4477153 59,35 C59,35.5522847 58.5522847,36 58,36 L27,36 C26.4477153,36 26,35.5522847 26,35 C26,34.4477153 26.4477153,34 27,34 L58,34 Z M40.5,38 C40.7761424,38 41,38.2238576 41,38.5 C41,38.7761424 40.7761424,39 40.5,39 L26.5,39 C26.2238576,39 26,38.7761424 26,38.5 C26,38.2238576 26.2238576,38 26.5,38 L40.5,38 Z M40.5,40 C40.7761424,40 41,40.2238576 41,40.5 C41,40.7761424 40.7761424,41 40.5,41 L26.5,41 C26.2238576,41 26,40.7761424 26,40.5 C26,40.2238576 26.2238576,40 26.5,40 L40.5,40 Z M40.5,42 C40.7761424,42 41,42.2238576 41,42.5 C41,42.7761424 40.7761424,43 40.5,43 L26.5,43 C26.2238576,43 26,42.7761424 26,42.5 C26,42.2238576 26.2238576,42 26.5,42 L40.5,42 Z M58.5,38 C58.7761424,38 59,38.2238576 59,38.5 C59,38.7761424 58.7761424,39 58.5,39 L44.5,39 C44.2238576,39 44,38.7761424 44,38.5 C44,38.2238576 44.2238576,38 44.5,38 L58.5,38 Z M58.5,40 C58.7761424,40 59,40.2238576 59,40.5 C59,40.7761424 58.7761424,41 58.5,41 L44.5,41 C44.2238576,41 44,40.7761424 44,40.5 C44,40.2238576 44.2238576,40 44.5,40 L58.5,40 Z M51.5,42 C51.7761424,42 52,42.2238576 52,42.5 C52,42.7761424 51.7761424,43 51.5,43 L44.5,43 C44.2238576,43 44,42.7761424 44,42.5 C44,42.2238576 44.2238576,42 44.5,42 L51.5,42 Z M58.5,21 C58.7761424,21 59,21.2238576 59,21.5 C59,21.7761424 58.7761424,22 58.5,22 L45.5,22 C45.2238576,22 45,21.7761424 45,21.5 C45,21.2238576 45.2238576,21 45.5,21 L58.5,21 Z M58.5,23 C58.7761424,23 59,23.2238576 59,23.5 C59,23.7761424 58.7761424,24 58.5,24 L45.5,24 C45.2238576,24 45,23.7761424 45,23.5 C45,23.2238576 45.2238576,23 45.5,23 L58.5,23 Z M51.5,25 C51.7761424,25 52,25.2238576 52,25.5 C52,25.7761424 51.7761424,26 51.5,26 L45.5,26 C45.2238576,26 45,25.7761424 45,25.5 C45,25.2238576 45.2238576,25 45.5,25 L51.5,25 Z M39,46 L28,46 C27.4477153,46 27,46.4477153 27,47 L27,53 C27,53.5522847 27.4477153,54 28,54 L39,54 C39.5522847,54 40,53.5522847 40,53 L40,47 C40,46.4477153 39.5522847,46 39,46 Z M39,45 C40.1045695,45 41,45.8954305 41,47 L41,53 C41,54.1045695 40.1045695,55 39,55 L28,55 C26.8954305,55 26,54.1045695 26,53 L26,47 C26,45.8954305 26.8954305,45 28,45 L39,45 Z M57,46 L46,46 C45.4477153,46 45,46.4477153 45,47 L45,53 C45,53.5522847 45.4477153,54 46,54 L57,54 C57.5522847,54 58,53.5522847 58,53 L58,47 C58,46.4477153 57.5522847,46 57,46 Z M57,45 C58.1045695,45 59,45.8954305 59,47 L59,53 C59,54.1045695 58.1045695,55 57,55 L46,55 C44.8954305,55 44,54.1045695 44,53 L44,47 C44,45.8954305 44.8954305,45 46,45 L57,45 Z"></path></g></g></svg>