<?xml version="1.0" encoding="UTF-8"?>
<svg width="1200pt" height="1200pt" version="1.1" viewBox="0 0 1200 1200" xmlns="http://www.w3.org/2000/svg">
 <g fill="#ec1a2f">
  <path d="m287.5 350v-134.04c-6.0586 3.8242-11.688 8.293-16.789 13.324l-191.42 191.42c-5.0312 5.0977-9.5 10.73-13.324 16.789h134.04c23.199-0.027344 45.438-9.2578 61.84-25.66s25.633-38.641 25.66-61.84z"/>
  <path d="m1091.2 441.16-85.352 85.34c-7.043 7.0078-16.562 10.961-26.5 11h-79.309c-6.9023 0-12.5 5.5977-12.5 12.5s5.5977 12.5 12.5 12.5h79.297c16.566-0.039062 32.445-6.6211 44.188-18.309l85.355-85.352 0.11328-0.28516c4.9805 2.5156 10.469 3.8672 16.047 3.9453 9.9453 0 19.484-3.9492 26.516-10.984 7.0352-7.0312 10.984-16.57 10.984-26.516s-3.9492-19.484-10.984-26.516c-7.0312-7.0352-16.57-10.984-26.516-10.984s-19.484 3.9492-26.516 10.984c-7.0352 7.0312-10.984 16.57-10.984 26.516 0.078125 5.5781 1.4297 11.066 3.9453 16.047zm33.84-28.66c5.0547 0 9.6133 3.0469 11.547 7.7148 1.9375 4.6719 0.86719 10.051-2.707 13.625-3.5742 3.5742-8.9531 4.6445-13.625 2.707-4.668-1.9336-7.7148-6.4922-7.7148-11.547 0-6.9023 5.5977-12.5 12.5-12.5z"/>
  <path d="m1125 712.5c-7.6953 0.046875-15.188 2.4766-21.449 6.9531s-10.98 10.781-13.516 18.047h-140.04c-6.9023 0-12.5 5.5977-12.5 12.5s5.5977 12.5 12.5 12.5h140.04c3.1094 8.625 9.2812 15.805 17.344 20.172s17.449 5.6172 26.371 3.5078c8.9258-2.1094 16.758-7.4258 22.012-14.941 5.2578-7.5117 7.5625-16.699 6.4805-25.801-1.082-9.1055-5.4727-17.496-12.344-23.57-6.8672-6.0742-15.73-9.4062-24.898-9.3672zm0 50c-5.0547 0-9.6133-3.0469-11.547-7.7148-1.9375-4.6719-0.86719-10.051 2.707-13.625 3.5742-3.5742 8.9531-4.6445 13.625-2.707 4.668 1.9336 7.7148 6.4922 7.7148 11.547 0 3.3164-1.3164 6.4961-3.6602 8.8398s-5.5234 3.6602-8.8398 3.6602z"/>
  <path d="m975 937.5c-5.5781 0.078125-11.066 1.4297-16.047 3.9492l-0.11328-0.28906-70.703-70.699c-21.145-21.027-49.723-32.871-79.543-32.961h-58.594c-6.9023 0-12.5 5.5977-12.5 12.5s5.5977 12.5 12.5 12.5h58.594c23.195 0.058594 45.43 9.2695 61.867 25.637l70.699 70.703 0.28906 0.11328c-2.5195 4.9805-3.8711 10.469-3.9492 16.047 0 9.9453 3.9492 19.484 10.984 26.516 7.0312 7.0352 16.57 10.984 26.516 10.984s19.484-3.9492 26.516-10.984c7.0352-7.0312 10.984-16.57 10.984-26.516s-3.9492-19.484-10.984-26.516c-7.0312-7.0352-16.57-10.984-26.516-10.984zm0 50c-5.0547 0-9.6133-3.0469-11.547-7.7148-1.9375-4.6719-0.86719-10.051 2.707-13.625 3.5742-3.5742 8.9531-4.6445 13.625-2.707 4.668 1.9336 7.7148 6.4922 7.7148 11.547 0 3.3164-1.3164 6.4961-3.6602 8.8398s-5.5234 3.6602-8.8398 3.6602z"/>
  <path d="m800 262.5h90.035c3.9648 11.211 13.008 19.879 24.379 23.359 11.371 3.4805 23.719 1.3594 33.277-5.7109 9.5586-7.0703 15.199-18.258 15.199-30.148s-5.6406-23.078-15.199-30.148c-9.5586-7.0703-21.906-9.1914-33.277-5.7109-11.371 3.4805-20.414 12.148-24.379 23.359h-90.035c-6.9023 0-12.5 5.5977-12.5 12.5s5.5977 12.5 12.5 12.5zm125-25c5.0547 0 9.6133 3.0469 11.547 7.7148 1.9375 4.6719 0.86719 10.051-2.707 13.625-3.5742 3.5742-8.9531 4.6445-13.625 2.707-4.668-1.9336-7.7148-6.4922-7.7148-11.547 0-6.9023 5.5977-12.5 12.5-12.5z"/>
  <path d="m711.86 329.54c21.145 21.027 49.723 32.871 79.543 32.961h148.63c3.9648 11.211 13.008 19.879 24.379 23.359 11.371 3.4805 23.719 1.3594 33.277-5.7109 9.5586-7.0703 15.199-18.258 15.199-30.148s-5.6406-23.078-15.199-30.148c-9.5586-7.0703-21.906-9.1914-33.277-5.7109-11.371 3.4805-20.414 12.148-24.379 23.359h-148.63c-23.191-0.070312-45.422-9.2812-61.867-25.637l-70.699-70.703c-4.8828-4.8828-12.797-4.8828-17.68 0-4.8828 4.8828-4.8828 12.797 0 17.68zm263.14 7.9609c5.0547 0 9.6133 3.0469 11.547 7.7148 1.9375 4.6719 0.86719 10.051-2.707 13.625-3.5742 3.5742-8.9531 4.6445-13.625 2.707-4.668-1.9336-7.7148-6.4922-7.7148-11.547 0-6.9023 5.5977-12.5 12.5-12.5z"/>
  <path d="m850 662.5h90.035c3.9648 11.211 13.008 19.879 24.379 23.359 11.371 3.4805 23.719 1.3594 33.277-5.7109 9.5586-7.0703 15.199-18.258 15.199-30.148s-5.6406-23.078-15.199-30.148c-9.5586-7.0703-21.906-9.1914-33.277-5.7109-11.371 3.4805-20.414 12.148-24.379 23.359h-90.035c-6.9023 0-12.5 5.5977-12.5 12.5s5.5977 12.5 12.5 12.5zm125-25c5.0547 0 9.6133 3.0469 11.547 7.7148 1.9375 4.6719 0.86719 10.051-2.707 13.625-3.5742 3.5742-8.9531 4.6445-13.625 2.707-4.668-1.9336-7.7148-6.4922-7.7148-11.547 0-6.9023 5.5977-12.5 12.5-12.5z"/>
  <path d="m850 462.5h100c6.9023 0 12.5-5.5977 12.5-12.5s-5.5977-12.5-12.5-12.5h-100c-6.9023 0-12.5 5.5977-12.5 12.5s5.5977 12.5 12.5 12.5z"/>
  <path d="m1050 837.5h-100c-6.9023 0-12.5 5.5977-12.5 12.5s5.5977 12.5 12.5 12.5h100c6.9023 0 12.5-5.5977 12.5-12.5s-5.5977-12.5-12.5-12.5z"/>
  <path d="m750 937.5h-100c-6.9023 0-12.5 5.5977-12.5 12.5s5.5977 12.5 12.5 12.5h100c6.9023 0 12.5-5.5977 12.5-12.5s-5.5977-12.5-12.5-12.5z"/>
  <path d="m500 200h-158.58c-9.8242 0.15234-19.57 1.7578-28.922 4.7695v145.23c-0.035156 29.824-11.902 58.418-32.992 79.508-21.09 21.09-49.684 32.957-79.508 32.992h-145.23c-3.0117 9.3516-4.6172 19.098-4.7695 28.922v408.58c0 26.523 10.535 51.957 29.289 70.711 18.754 18.754 44.188 29.289 70.711 29.289h350c26.523 0 51.957-10.535 70.711-29.289 18.754-18.754 29.289-44.188 29.289-70.711v-94.141c-18.883 16.922-45.039 23.152-69.523 16.562-24.484-6.5938-43.98-25.113-51.816-49.227-29.004-5.0703-55.297-20.199-74.254-42.73s-29.367-51.02-29.406-80.465c-0.003906-17.246 3.6758-34.293 10.789-50-7.1172-15.707-10.793-32.754-10.789-50 0.039062-29.441 10.453-57.926 29.41-80.453 18.957-22.523 45.246-37.648 74.25-42.719 7.8242-24.121 27.316-42.652 51.805-49.246 24.488-6.5977 50.648-0.36719 69.535 16.559v-94.141c0-26.523-10.535-51.957-29.289-70.711-18.754-18.754-44.188-29.289-70.711-29.289zm-400 337.5h100c6.9023 0 12.5 5.5977 12.5 12.5s-5.5977 12.5-12.5 12.5h-100c-6.9023 0-12.5-5.5977-12.5-12.5s5.5977-12.5 12.5-12.5zm200 125h-200c-6.9023 0-12.5-5.5977-12.5-12.5s5.5977-12.5 12.5-12.5h200c6.9023 0 12.5 5.5977 12.5 12.5s-5.5977 12.5-12.5 12.5zm0-50h-200c-6.9023 0-12.5-5.5977-12.5-12.5s5.5977-12.5 12.5-12.5h200c6.9023 0 12.5 5.5977 12.5 12.5s-5.5977 12.5-12.5 12.5z"/>
  <path d="m500 750c0 13.262 5.2695 25.98 14.645 35.355s22.094 14.645 35.355 14.645c14.516-0.12109 28.238-6.6445 37.5-17.824v-364.35c-9.2617-11.18-22.984-17.703-37.5-17.824-13.262 0-25.98 5.2695-35.355 14.645s-14.645 22.094-14.645 35.355c-26.523 0-51.957 10.535-70.711 29.289-18.754 18.754-29.289 44.188-29.289 70.711 0.097656 17.602 4.8828 34.863 13.871 50-8.9883 15.137-13.773 32.398-13.871 50 0 26.523 10.535 51.957 29.289 70.711 18.754 18.754 44.188 29.289 70.711 29.289z"/>
  <path d="m700 750c26.523 0 51.957-10.535 70.711-29.289 18.754-18.754 29.289-44.188 29.289-70.711-0.097656-17.602-4.8828-34.863-13.871-50 8.9883-15.137 13.773-32.398 13.871-50 0-26.523-10.535-51.957-29.289-70.711-18.754-18.754-44.188-29.289-70.711-29.289 0-13.262-5.2695-25.98-14.645-35.355s-22.094-14.645-35.355-14.645c-14.516 0.12109-28.238 6.6445-37.5 17.824v364.35c9.2617 11.18 22.984 17.703 37.5 17.824 13.262 0 25.98-5.2695 35.355-14.645s14.645-22.094 14.645-35.355z"/>
 </g>
</svg>
