<svg xmlns="http://www.w3.org/2000/svg" xmlns:xlink="http://www.w3.org/1999/xlink" version="1.1" x="0px" y="0px" viewBox="0 0 1024 1024" style="enable-background:new 0 0 1024 1024;" xml:space="preserve"><path d="M916.9,224H564c9.7-11.7,15.5-26.7,15.5-43c0-37.2-30.3-67.5-67.5-67.5s-67.5,30.3-67.5,67.5c0,16.3,5.8,31.3,15.5,43H107.1  c-15.5,0-28.2,12.6-28.2,28.1v509c0,15.5,12.6,28.2,28.2,28.2h320.5v91.2h-55.4c-8.3,0-15,6.7-15,15c0,8.3,6.7,15,15,15h279.5  c8.3,0,15-6.7,15-15c0-8.3-6.7-15-15-15h-55.4v-91.2h320.5c15.5,0,28.2-12.6,28.2-28.1v-509C945.1,236.6,932.5,224,916.9,224z   M263,669.5h-64.4v-37.2c0-5.5-4.5-10-10-10c-5.5,0-10,4.5-10,10v37.2h-44c-2.8,0-5-2.2-5-5v-62.4c0-21.3,12.6-40.7,32.1-49.3  l71.5-31.7c3.4-1.5,7.4-0.5,9.7,2.5l20.1,26.3V669.5z M221.7,474.9C208.3,458.5,201,437.3,201,415c0-21.9,7.4-40.2,21.3-52.7  c12.9-11.6,30.4-17.8,50.7-17.8s37.8,6.1,50.7,17.8c13.9,12.6,21.3,30.8,21.3,52.7c0,22.3-7.4,43.6-20.7,59.9  c-13.8,16.8-32,26.1-51.2,26.1C253.7,501,235.5,491.8,221.7,474.9z M416.4,664.5c0,2.8-2.2,5-5,5h-44v-37.2c0-5.5-4.5-10-10-10  c-5.5,0-10,4.5-10,10v37.2H283V550.1l20.6-26.6c2.3-3,6.3-4,9.7-2.4l71.1,31.7c19.4,8.7,32,28,32,49.3V664.5z M835.6,301.6  c25.5,0,42.6,16.8,42.6,41.8c0,27.4-19.5,50.5-42.6,50.5S793,370.8,793,343.4C793,318.4,810.1,301.6,835.6,301.6z M596.5,301.6  c25.5,0,42.6,16.8,42.6,41.8c0,27.4-19.5,50.5-42.6,50.5c-23.1,0-42.6-23.1-42.6-50.5C553.9,318.4,571,301.6,596.5,301.6z   M512,160.1c11.4,0,20.7,9.3,20.7,20.7c0,11.4-9.3,20.7-20.7,20.7s-20.7-9.3-20.7-20.7C491.3,169.4,500.6,160.1,512,160.1z   M679.2,759.3H513.8v-19.8c0-12.8,7.6-24.5,19.3-29.7l40.1-17.8c2.9-1.3,6.2-0.4,8.1,2.1l15.2,19.9L612,694c1.9-2.5,5.2-3.3,8.1-2  l39.9,17.8c11.7,5.2,19.3,16.9,19.3,29.7V759.3z M553.9,622.2c0-25,17.1-41.8,42.6-41.8s42.6,16.8,42.6,41.8  c0,27.4-19.5,50.5-42.6,50.5C573.4,672.7,553.9,649.6,553.9,622.2z M915.1,759.3H752.8v-19.8c0-12.8,7.6-24.5,19.3-29.7l40.1-17.8  c2.9-1.3,6.2-0.4,8.1,2.1l15.2,19.9L851,694c1.9-2.5,5.2-3.3,8.1-2l39.9,17.8c7.2,3.2,12.8,8.8,16.1,15.6V759.3z M793,622.2  c0-25,17.1-41.8,42.6-41.8s42.6,16.8,42.6,41.8c0,27.4-19.5,50.5-42.6,50.5S793,649.6,793,622.2z M918.3,505.5H726v253.8h-20V505.5  H487.5c-0.2,0-0.3,0-0.5,0v253.8h-20V254h20v231.5c0.2,0,0.3,0,0.5,0h26.3v-24.9c0-12.8,7.6-24.5,19.3-29.7l40.1-17.8  c2.9-1.3,6.2-0.4,8.1,2.1l15.2,19.8l15.4-19.9c1.9-2.5,5.2-3.3,8.1-2l39.9,17.8c11.7,5.2,19.3,16.9,19.3,29.7v24.9H706V254h20v231.5  h26.8v-24.9c0-12.8,7.6-24.5,19.3-29.7l40.1-17.8c2.9-1.3,6.2-0.4,8.1,2.1l15.2,19.8l15.4-19.9c1.9-2.5,5.2-3.3,8.1-2l39.9,17.8  c7.2,3.2,12.8,8.8,16.1,15.7c2.1,4.3,3.2,9.1,3.2,14V505.5z"></path></svg>